<?xml version="1.0" standalone="no"?>
<!DOCTYPE svg PUBLIC "-//W3C//DTD SVG 20010904//EN"
 "http://www.w3.org/TR/2001/REC-SVG-20010904/DTD/svg10.dtd">
<svg version="1.0" xmlns="http://www.w3.org/2000/svg"
 width="2921.000000pt" height="1287.000000pt" viewBox="0 0 2921.000000 1287.000000"
 preserveAspectRatio="xMidYMid meet">

<g transform="translate(0.000000,1287.000000) scale(0.100000,-0.100000)"
fill="#000000" stroke="none">
<path d="M6346 12840 c-433 -54 -786 -285 -964 -628 -170 -325 -186 -731 -43
-1047 34 -74 116 -197 161 -240 34 -33 35 -33 115 28 l40 30 1 196 c1 263 25
363 112 453 31 33 96 67 107 56 2 -2 -16 -32 -40 -68 -180 -265 -177 -595 7
-839 23 -30 57 -84 76 -120 32 -61 34 -71 30 -136 -6 -80 -35 -156 -86 -223
-40 -53 -32 -72 9 -22 80 94 117 236 88 337 -7 26 -41 89 -75 139 -124 182
-167 294 -168 439 0 141 57 297 168 455 25 36 41 67 35 68 -21 8 -111 -22
-148 -49 -97 -70 -131 -189 -137 -477 -3 -202 -4 -204 -28 -223 -13 -10 -29
-19 -34 -19 -15 0 -91 102 -135 180 -20 36 -37 61 -37 56 0 -15 77 -162 111
-213 25 -37 27 -43 10 -28 -30 26 -102 128 -130 183 -20 39 -21 48 -11 105 15
83 78 215 130 271 49 53 46 58 -13 17 -54 -37 -119 -100 -157 -152 -16 -23
-30 -35 -30 -27 0 32 65 142 119 200 31 34 47 56 36 51 -25 -14 -125 -118
-151 -158 l-19 -29 -12 49 c-6 28 -12 72 -12 99 -1 48 1 52 52 100 28 27 85
71 126 98 40 26 70 48 65 48 -5 0 -63 -27 -128 -60 l-119 -60 6 74 c8 89 21
121 56 135 51 19 142 42 248 61 l108 20 -97 -5 c-54 -3 -134 -12 -178 -21 -44
-8 -85 -12 -90 -9 -16 10 -12 31 22 117 l32 80 55 -6 c31 -4 74 -9 96 -12 32
-4 24 1 -38 24 -43 16 -80 32 -83 35 -6 6 42 105 64 130 20 22 45 22 67 -3 22
-24 144 -108 210 -144 41 -23 45 -24 21 -5 -81 64 -136 115 -183 171 l-51 62
31 44 c53 73 57 72 139 -14 70 -73 199 -178 270 -218 25 -15 21 -9 -17 24
-100 87 -266 270 -277 307 -4 14 90 93 105 87 7 -2 19 -20 26 -39 31 -86 181
-278 265 -338 21 -15 16 -5 -23 44 -97 120 -161 261 -161 357 l0 49 68 30
c149 67 301 103 462 108 l115 4 -75 -12 c-41 -7 -85 -19 -97 -25 -36 -20 -73
-93 -73 -143 -1 -37 -2 -41 -12 -25 -6 11 -11 50 -11 88 0 47 -4 68 -12 68 -7
0 -56 -14 -110 -31 -115 -38 -119 -43 -113 -174 3 -75 9 -101 35 -158 18 -37
52 -93 77 -125 49 -64 146 -150 131 -117 -32 74 -65 187 -65 225 0 72 14 77
34 13 17 -54 91 -223 98 -223 2 0 1 40 0 89 -6 151 40 263 155 378 59 60 189
153 212 153 6 0 15 -19 21 -42 6 -24 16 -61 22 -82 8 -32 7 -41 -5 -47 -50
-28 -141 -107 -170 -147 -93 -127 -113 -233 -81 -431 l6 -38 -48 -8 c-76 -11
-190 -52 -250 -90 -30 -19 -54 -37 -54 -40 0 -2 24 5 53 16 93 38 180 59 257
64 65 4 70 3 40 -6 -19 -6 -71 -23 -115 -36 -102 -32 -223 -95 -277 -143 -43
-37 -43 -38 -46 -118 -2 -44 0 -88 5 -97 8 -14 16 -9 47 34 102 139 304 252
446 251 l35 -1 -32 -14 c-45 -19 -124 -74 -145 -99 -54 -66 10 -115 222 -170
211 -54 267 -79 237 -104 -7 -6 -76 -36 -152 -67 -211 -85 -340 -161 -453
-269 -123 -118 -194 -260 -206 -416 l-6 -75 38 81 c107 221 233 349 457 461
61 30 99 52 85 48 -45 -13 -163 -65 -239 -106 -40 -22 -75 -38 -77 -36 -4 4
132 104 206 151 68 44 178 93 245 111 99 27 242 31 340 10 119 -25 115 -32
-25 -54 -72 -12 -166 -54 -222 -101 -20 -16 -72 -83 -116 -148 -87 -127 -126
-169 -187 -200 -52 -27 -21 -28 49 -2 64 25 135 84 170 144 35 59 84 101 146
121 58 19 77 14 33 -9 -98 -50 -132 -153 -109 -336 8 -62 7 -70 -25 -135 -29
-59 -34 -81 -34 -140 0 -59 4 -78 29 -120 90 -153 296 -267 460 -253 44 4 54
2 45 -8 -34 -41 -203 -44 -316 -4 -35 12 -73 20 -85 18 -29 -4 -45 -51 -54
-158 -4 -45 -11 -83 -15 -86 -12 -7 -49 120 -62 213 -10 76 -14 83 -39 94 -37
15 -102 79 -124 121 -9 18 -19 63 -22 100 l-5 67 -19 -22 c-19 -22 -19 -22
-15 63 3 47 8 94 12 105 6 14 5 17 -3 10 -34 -32 -62 -157 -79 -360 -9 -113
44 -257 132 -353 l49 -55 -34 8 c-65 14 -139 53 -189 100 l-49 46 -25 -44
c-14 -24 -75 -90 -136 -146 -140 -130 -161 -168 -161 -292 0 -96 22 -183 65
-258 14 -24 24 -45 22 -47 -8 -8 -73 17 -107 41 -99 68 -171 213 -216 434 -5
24 -5 24 -42 -11 -20 -20 -48 -41 -62 -48 -34 -18 -119 -40 -154 -40 -25 0
-20 5 35 33 90 45 104 71 112 197 10 160 51 234 192 341 65 49 108 115 121
184 l7 40 -67 -62 c-36 -35 -84 -73 -106 -85 -39 -22 -51 -38 -30 -38 14 0 55
26 108 68 77 63 44 13 -73 -108 -72 -73 -123 -136 -135 -163 -22 -49 -44 -188
-36 -221 12 -50 -63 -132 -143 -157 -56 -17 -366 -23 -477 -9 -52 6 -98 10
-100 8 -2 -3 23 -44 56 -92 307 -450 798 -782 1330 -899 282 -63 571 -63 878
-1 133 26 372 102 437 137 l40 22 3 80 c5 115 -15 284 -43 374 -41 129 -103
210 -211 276 -18 11 -48 32 -67 48 -18 15 -54 31 -78 37 -117 25 -167 40 -204
59 -22 11 -71 24 -109 28 -82 9 -97 24 -122 123 -21 81 -23 170 -5 233 7 26
15 47 16 47 2 0 31 -9 66 -19 148 -45 241 -50 314 -15 59 28 75 64 75 168 0
70 4 93 17 108 10 12 18 39 19 70 3 55 15 74 81 119 22 16 51 44 63 63 24 40
22 46 -40 131 -61 82 -73 114 -73 181 1 71 15 104 46 104 36 0 123 46 171 90
57 53 118 143 110 164 -3 8 -37 41 -76 72 l-69 57 68 69 c43 44 61 68 51 68
-48 0 -340 171 -650 381 -66 45 -142 87 -184 102 -85 30 -241 50 -330 41 l-63
-7 -8 29 c-4 16 -8 76 -8 134 0 94 3 111 28 164 15 33 44 80 64 104 31 38 124
115 171 141 13 7 12 21 -7 98 -12 49 -26 95 -30 102 -11 17 -280 24 -385 11z
m556 -931 c70 -15 112 -37 243 -129 192 -135 393 -243 493 -265 50 -11 50 -30
1 -75 l-44 -40 35 -28 c19 -15 55 -46 80 -69 42 -39 44 -42 31 -67 -47 -87
-175 -185 -263 -201 -34 -6 -38 -11 -44 -44 -9 -56 -11 -58 -24 -26 -8 20 -9
46 -4 75 12 70 8 124 -11 153 -21 32 -4 37 33 11 33 -23 38 -11 12 26 l-22 31
33 -2 c84 -6 170 1 167 14 -5 22 -271 264 -379 345 -228 172 -319 220 -466
248 -51 10 -90 20 -88 22 9 9 100 31 132 31 18 1 56 -4 85 -10z m420 -625 l51
-26 -89 -29 c-123 -40 -199 -50 -266 -35 l-53 12 78 6 c73 5 80 7 135 51 31
25 65 46 75 46 10 1 41 -11 69 -25z m-75 -300 c42 -11 51 -18 46 -31 -4 -11
-3 -14 6 -9 8 5 14 0 18 -14 13 -50 83 -179 132 -243 l52 -69 -20 -31 c-11
-18 -34 -40 -51 -50 -31 -19 -31 -19 -51 7 -16 20 -29 26 -59 26 -29 0 -42 5
-50 19 -18 35 -12 60 20 76 17 9 30 17 30 19 0 20 -21 41 -70 71 -33 20 -62
45 -65 55 -4 11 -11 20 -16 20 -6 0 -7 5 -3 12 7 11 4 10 -43 -9 -6 -2 -21 5
-32 16 -13 13 -34 21 -55 21 -23 0 -45 9 -63 25 l-28 24 41 1 c23 0 57 7 75
16 l34 15 -60 -5 -60 -6 40 22 c94 51 121 54 232 22z m141 -536 c16 -16 15
-43 0 -56 -20 -16 -170 -20 -175 -4 -3 7 5 12 20 12 13 0 44 13 68 30 48 32
68 37 87 18z m-43 -97 c3 -6 -3 -15 -15 -21 -18 -10 -42 -8 -95 8 -18 5 -18 6
5 13 37 11 98 10 105 0z m-996 -770 c25 -26 57 -55 71 -64 l25 -18 -38 6 c-63
10 -124 42 -177 91 l-51 47 43 44 42 43 19 -51 c12 -31 38 -70 66 -98z m779
87 c15 -7 34 -17 42 -24 8 -6 37 -14 65 -18 27 -3 54 -11 59 -16 6 -6 23 -10
38 -10 33 0 78 -21 98 -45 8 -9 32 -26 54 -37 22 -11 65 -46 96 -77 100 -100
150 -271 150 -513 l0 -107 -46 -21 c-26 -11 -48 -20 -49 -20 -1 0 -5 50 -9
112 -7 119 -28 237 -51 290 -17 38 -19 20 -5 -37 14 -56 14 -247 0 -327 l-12
-67 -76 -25 c-41 -14 -77 -24 -79 -22 -3 2 2 37 11 77 33 168 29 332 -14 500
-19 75 -65 190 -55 138 2 -14 7 -74 11 -135 10 -167 -18 -368 -74 -538 l-27
-81 -70 -12 c-39 -6 -103 -14 -142 -18 l-73 -7 46 84 c70 128 132 260 160 346
23 67 27 96 29 227 2 83 1 132 -1 110 -28 -290 -129 -518 -295 -669 -94 -84
-133 -100 -233 -93 -44 3 -96 9 -114 13 -33 7 -33 7 38 35 116 45 209 106 301
198 72 72 94 101 132 181 53 109 77 213 76 327 l-1 78 -13 -60 c-33 -153 -111
-298 -217 -405 -162 -164 -376 -239 -648 -227 -156 7 -214 19 -315 66 -229
107 -483 300 -660 500 -105 120 -116 143 -24 50 241 -243 686 -399 1140 -400
283 -1 386 40 546 215 116 127 149 256 104 404 -11 39 -21 73 -21 77 0 10 94
-3 128 -17z"/>
<path d="M8107 12633 c-82 -242 -138 -573 -153 -914 l-6 -156 30 -12 c39 -16
77 -57 96 -101 13 -32 13 -53 -2 -190 -12 -117 -13 -155 -4 -158 9 -3 12 -103
12 -398 0 -379 1 -394 19 -394 18 0 19 16 23 365 2 263 7 368 15 376 9 9 22 3
54 -29 l41 -42 -7 60 c-6 51 -5 60 9 60 9 0 16 1 16 3 0 2 -14 74 -30 159 -33
172 -32 188 18 241 15 16 40 36 56 44 l29 15 -6 206 c-8 282 -38 474 -118 764
-55 196 -58 200 -92 101z m21 -1484 c-26 -16 -30 12 -19 132 16 180 -3 251
-81 296 l-30 18 5 180 c8 242 56 548 115 735 17 53 17 36 20 -649 2 -555 -1
-706 -10 -712z"/>
<path d="M3002 11984 c-172 -38 -348 -143 -464 -277 -112 -130 -248 -349 -248
-399 0 -26 2 -28 28 -22 140 34 311 149 529 357 64 62 107 99 96 82 -29 -41
-225 -232 -294 -287 -76 -61 -189 -121 -276 -147 -115 -34 -88 -58 53 -46 255
21 510 195 697 476 63 95 147 251 147 273 0 11 -206 4 -268 -10z"/>
<path d="M10521 11956 c-8 -9 -10 -26 -6 -46 7 -31 76 -130 113 -164 29 -25
28 -36 -3 -36 -34 0 -33 -29 1 -70 33 -39 56 -51 179 -90 114 -37 126 -44 101
-63 -28 -20 -15 -49 33 -76 36 -20 63 -25 143 -29 89 -4 118 -13 86 -25 -15
-5 202 -112 247 -122 29 -6 28 -4 -20 40 -27 26 -97 85 -155 133 -103 84 -153
128 -120 106 40 -27 197 -151 248 -196 73 -65 99 -81 112 -73 17 11 -11 52
-93 136 -23 23 -26 32 -18 48 17 31 13 66 -10 96 -17 21 -28 26 -49 21 -26 -5
-27 -3 -26 33 1 48 -26 89 -71 108 -34 14 -48 14 -85 -2 -12 -5 -26 8 -57 53
-47 69 -120 137 -159 147 -21 5 -31 2 -45 -16 l-19 -23 -46 27 c-142 85 -253
117 -281 83z"/>
<path d="M2040 11684 c-78 -61 -218 -206 -275 -285 -128 -178 -184 -342 -192
-566 -3 -78 -3 -153 1 -167 15 -60 98 -15 229 124 91 97 153 188 212 312 55
117 82 214 97 348 12 110 2 261 -17 266 -5 2 -30 -13 -55 -32z m-101 -286 c-7
-13 -45 -75 -85 -139 -145 -233 -207 -373 -234 -532 -16 -88 -29 -95 -18 -9
13 92 60 229 117 337 47 89 219 365 227 365 3 0 -1 -10 -7 -22z"/>
<path d="M11625 11473 c-73 -19 -72 -86 4 -195 l51 -73 -25 -18 c-16 -12 -25
-28 -25 -47 0 -30 27 -57 114 -118 l48 -33 -21 -23 c-48 -51 -3 -123 72 -113
42 6 46 -2 17 -28 -26 -23 -25 -40 1 -66 21 -21 55 -22 102 -4 13 6 17 2 17
-15 0 -12 9 -34 19 -49 11 -15 23 -39 26 -54 7 -26 36 -44 54 -33 13 8 -6 97
-44 213 -33 100 -69 177 -120 261 -14 23 -24 42 -21 42 2 0 25 -33 50 -72 53
-86 105 -206 142 -326 26 -82 28 -85 36 -57 11 37 14 267 4 284 -6 9 -11 9
-23 -1 -14 -11 -15 -10 -10 7 24 77 37 147 37 197 0 47 -5 62 -25 85 l-25 28
-28 -34 -29 -34 -22 88 c-40 159 -62 195 -123 195 -34 0 -38 -3 -38 -24 0 -37
-14 -39 -67 -13 -50 26 -114 39 -148 30z"/>
<path d="M6590 11029 c-14 -12 -56 -37 -95 -56 -85 -43 -127 -73 -156 -115
l-23 -31 45 27 c24 15 73 40 108 57 79 36 120 67 144 108 21 36 13 39 -23 10z"/>
<path d="M12435 10770 c-21 -23 -44 -123 -45 -189 0 -43 0 -44 -20 -26 -43 39
-71 -14 -52 -103 6 -29 32 -96 57 -149 25 -53 45 -99 45 -104 0 -5 -13 -6 -30
-2 -30 5 -30 5 -30 -37 0 -54 17 -89 85 -174 40 -50 52 -72 43 -77 -9 -6 -5
-32 19 -111 18 -57 41 -124 53 -148 l20 -45 -5 150 c-2 83 -7 182 -9 220 -4
62 -3 60 9 -25 7 -52 14 -131 15 -175 3 -122 12 -180 30 -180 16 0 32 81 32
156 0 31 4 37 31 45 59 17 76 98 25 121 -23 10 -23 10 9 26 63 33 63 127 -1
182 l-35 30 16 65 c19 82 13 192 -12 220 -9 10 -29 20 -44 22 -23 3 -27 10
-39 63 -27 117 -55 194 -84 229 -33 41 -57 45 -83 16z"/>
<path d="M11642 10744 c-19 -13 -22 -22 -17 -45 6 -27 4 -29 -22 -29 -46 0
-128 -28 -148 -50 -25 -27 -24 -83 1 -111 10 -11 40 -32 66 -45 55 -28 63 -38
43 -54 -19 -16 -19 -44 1 -64 11 -12 35 -16 84 -16 l70 0 -6 -30 c-12 -57 39
-79 89 -40 l26 21 -10 -31 c-8 -23 -8 -34 1 -45 18 -22 35 -18 73 14 32 29 34
29 45 10 7 -10 17 -19 24 -19 6 0 22 -10 34 -21 25 -23 54 -20 54 7 0 16 -125
174 -138 174 -4 1 -25 17 -47 37 -25 22 -31 31 -16 23 14 -7 67 -53 118 -103
69 -66 93 -85 93 -70 0 20 -38 138 -60 186 -15 31 -30 36 -31 10 -1 -33 -18
19 -18 58 -3 122 -85 216 -108 122 l-8 -37 -48 67 c-42 58 -87 97 -114 97 -5
0 -19 -7 -31 -16z"/>
<path d="M2035 10733 c-219 -46 -398 -175 -532 -380 -95 -145 -192 -373 -159
-373 13 0 132 63 176 94 68 46 201 178 307 304 53 61 97 112 100 112 6 0 -115
-154 -187 -239 -98 -113 -191 -187 -300 -238 -72 -34 -91 -47 -79 -53 20 -12
122 4 203 31 248 83 479 343 595 672 l30 87 -42 -1 c-23 0 -73 -7 -112 -16z"/>
<path d="M6418 10657 c-93 -64 -153 -153 -202 -301 -23 -70 -59 -151 -88 -199
-26 -44 -48 -82 -48 -84 0 -9 67 43 107 83 64 64 110 142 148 248 41 113 65
164 109 226 61 86 61 86 -26 27z"/>
<path d="M990 10379 c-228 -345 -293 -663 -198 -959 28 -87 85 -200 101 -200
11 0 10 14 -4 68 -23 85 -24 266 -4 381 17 97 108 447 113 433 1 -5 -13 -76
-32 -158 -56 -236 -67 -301 -73 -430 -7 -139 13 -294 37 -294 17 0 50 43 105
135 202 340 236 725 89 1005 -19 36 -43 76 -53 89 l-19 25 -62 -95z"/>
<path d="M8002 10279 c2 -13 18 -34 38 -47 31 -21 42 -23 102 -17 l66 7 46
-42 c26 -24 49 -53 52 -66 9 -37 24 -18 24 32 0 51 -13 67 -86 110 -41 24 -61
29 -119 30 -38 0 -83 4 -98 8 -26 8 -28 7 -25 -15z"/>
<path d="M7946 10214 c-3 -9 -6 -39 -5 -67 1 -49 1 -50 13 -25 6 15 22 38 35
51 l22 25 -22 16 c-29 20 -35 20 -43 0z"/>
<path d="M8179 10146 c-3 -3 -29 -8 -58 -11 -78 -9 -129 -41 -142 -88 -14 -54
-2 -64 35 -29 36 35 87 62 114 62 25 0 84 -25 133 -56 21 -13 41 -24 44 -24 3
0 5 13 5 30 0 24 -8 35 -42 56 -24 15 -52 35 -64 45 -11 11 -23 17 -25 15z"/>
<path d="M8033 9985 c-19 -19 -42 -35 -50 -35 -13 0 -15 -13 -11 -74 3 -65 7
-79 42 -132 22 -32 48 -65 58 -72 17 -12 18 -32 19 -245 1 -205 2 -229 14
-202 11 23 14 89 15 274 0 228 1 243 18 236 9 -4 33 -13 52 -20 l35 -13 5
-276 5 -276 79 79 79 79 -7 59 c-15 140 -48 259 -95 349 -43 82 -50 91 -98
114 -28 14 -60 33 -71 43 -14 12 -32 17 -62 15 -24 -2 -44 2 -46 7 -2 6 18 23
44 39 49 30 65 30 172 0 22 -7 23 -6 12 9 -12 14 -149 77 -167 77 -4 0 -23
-16 -42 -35z"/>
<path d="M12143 9828 c-24 -12 -26 -17 -23 -62 2 -26 0 -28 -25 -22 -40 10
-111 -3 -148 -28 -72 -48 -57 -121 38 -181 30 -20 55 -38 55 -41 0 -2 -7 -16
-16 -29 -32 -49 8 -85 94 -85 63 0 78 -10 60 -39 -9 -16 -10 -26 -2 -39 15
-24 71 -28 94 -7 18 17 19 15 17 -26 -2 -41 0 -44 24 -47 17 -2 37 6 57 22 35
30 42 32 42 11 0 -9 11 -20 24 -25 14 -5 30 -19 36 -30 13 -25 53 -24 58 1 6
33 -127 209 -208 273 -22 17 -26 23 -11 15 35 -17 160 -144 201 -204 45 -65
48 -46 15 85 -27 111 -40 137 -60 120 -9 -8 -13 10 -17 78 -6 95 -25 146 -58
157 -27 9 -36 1 -43 -35 -4 -16 -10 -30 -14 -30 -5 0 -23 27 -42 60 -55 95
-102 130 -148 108z"/>
<path d="M13048 9719 c-22 -12 -63 -81 -83 -139 -8 -25 -18 -52 -21 -60 -4
-11 -9 -8 -20 13 -9 17 -22 27 -32 25 -44 -9 -54 -115 -26 -294 9 -58 14 -108
10 -111 -3 -3 -14 1 -24 10 -28 26 -40 21 -48 -19 -10 -55 2 -124 30 -174 14
-25 32 -62 40 -82 15 -35 15 -37 -1 -31 -15 6 -16 -6 -10 -133 4 -76 11 -152
15 -169 8 -27 11 -21 31 65 12 52 33 154 46 225 13 72 24 116 24 98 1 -17 -15
-117 -34 -222 -19 -104 -35 -199 -35 -210 0 -31 29 -26 41 7 6 15 19 45 30 67
10 22 19 51 19 64 0 20 4 23 27 18 65 -12 106 46 72 102 -23 39 -24 43 -1 40
34 -3 43 1 62 34 27 43 25 87 -5 131 -30 44 -31 56 -6 104 10 20 22 53 26 72
4 19 16 45 27 57 26 28 14 72 -25 91 l-27 13 0 148 c0 161 -14 229 -53 256
-25 17 -26 18 -49 4z"/>
<path d="M2773 9253 c-171 -239 -329 -449 -382 -508 -50 -55 -91 -106 -91
-115 0 -8 -48 -77 -108 -152 -106 -137 -108 -139 -311 -289 l-204 -151 101
-66 102 -67 0 -502 0 -503 -53 0 c-52 0 -55 -2 -84 -43 l-31 -43 75 -87 c41
-48 79 -87 84 -87 5 0 9 -97 9 -230 0 -177 -3 -230 -12 -230 -7 0 -39 6 -70
14 l-58 13 0 -978 0 -979 21 0 c12 0 406 47 875 105 470 58 871 105 892 105
21 0 375 40 788 90 l749 89 1780 0 1780 1 775 -90 c1152 -134 1503 -175 2058
-244 l502 -62 0 979 0 980 -35 -7 c-19 -3 -51 -9 -70 -12 l-35 -7 0 232 c0
178 3 231 13 232 6 0 44 39 84 87 l71 86 -31 43 c-29 41 -32 43 -84 43 l-53 0
0 504 0 504 85 53 c47 30 81 55 76 57 -5 2 -47 -22 -93 -52 l-83 -56 -842 0
-842 0 -298 -266 c-217 -193 -300 -272 -304 -292 -3 -15 -9 -26 -15 -26 -5 1
-38 5 -73 9 l-64 7 37 -48 c20 -26 55 -59 76 -72 l40 -23 0 -341 c0 -280 2
-339 13 -335 8 3 146 82 307 176 l294 171 163 0 163 0 0 274 c0 167 -4 277
-10 281 -5 3 -14 24 -20 46 -6 22 -14 47 -17 55 -4 12 26 14 200 14 113 0 208
-3 210 -7 3 -5 1 -17 -3 -28 -6 -19 -18 -20 -171 -25 l-164 -5 0 -305 0 -305
345 0 345 0 3 274 c2 221 0 277 -11 290 -8 9 -17 30 -20 46 -3 17 -9 38 -12
48 -7 16 7 17 198 17 113 0 208 -3 210 -7 3 -5 1 -17 -3 -28 -6 -19 -18 -20
-171 -25 l-164 -5 0 -305 0 -305 359 -3 c317 -2 362 -4 378 -19 28 -25 22 -43
-42 -120 l-60 -73 -867 0 -867 0 -732 -402 c-404 -221 -735 -407 -737 -412 -2
-6 -1 -271 1 -588 l4 -578 24 0 24 0 2 217 3 217 32 7 c18 3 35 4 38 1 3 -3 5
-108 5 -234 0 -221 1 -228 20 -228 19 0 20 8 22 238 l3 237 48 5 c26 4 50 4
52 1 3 -2 5 -114 5 -248 0 -155 4 -243 10 -243 6 0 13 -1 18 -2 4 -2 9 112 12
252 l5 255 48 3 47 3 0 -265 c0 -259 1 -266 20 -266 20 0 20 7 20 269 l0 269
23 6 c12 3 34 6 50 6 l27 0 0 -285 c0 -278 0 -285 20 -285 20 0 20 7 20 289
l0 288 38 7 c79 13 72 41 72 -293 0 -263 2 -300 16 -305 9 -3 18 -6 20 -6 2 0
4 137 4 304 0 168 4 307 9 310 4 3 34 8 65 12 l56 7 2 -324 3 -324 38 -3 37
-3 0 330 c0 369 -7 337 75 343 l40 3 3 -348 c2 -339 3 -347 22 -347 20 0 20 7
20 350 0 272 3 351 13 354 6 3 31 7 54 9 l43 5 2 -366 3 -367 23 -3 22 -3 0
375 0 376 29 0 c16 0 43 3 60 6 l31 6 2 -388 3 -389 60 -3 c33 -2 65 -8 70
-14 18 -19 -161 -2 -844 81 l-664 81 -1809 0 -1808 0 -709 -85 c-709 -85 -801
-94 -801 -75 0 6 28 10 65 10 l65 0 0 391 0 390 58 -7 c31 -3 60 -8 65 -11 4
-2 7 -170 7 -374 0 -362 0 -369 20 -369 20 0 20 7 20 371 l0 372 31 -7 c17 -3
42 -6 55 -6 l24 0 0 -355 0 -355 25 0 25 0 0 351 0 352 31 -7 c17 -3 42 -6 55
-6 l24 0 0 -335 0 -335 23 0 c12 0 32 3 45 6 l22 6 0 319 0 319 23 0 c12 0 39
-3 60 -6 l37 -7 0 -309 c0 -279 2 -310 16 -304 9 3 18 6 20 6 2 0 4 136 4 301
l0 302 38 -7 c20 -3 45 -6 55 -6 16 0 17 -21 17 -291 l0 -290 23 3 22 3 3 283
2 282 28 0 c15 0 37 -3 50 -6 l22 -6 0 -269 c0 -262 0 -269 20 -269 20 0 20 7
20 269 l0 268 28 -4 c15 -2 37 -6 50 -9 l22 -4 0 -254 c0 -249 0 -254 20 -249
19 5 20 14 20 254 l0 249 43 -6 c23 -3 48 -7 55 -10 9 -2 12 -59 12 -239 0
-228 1 -235 20 -235 19 0 20 7 20 236 l0 236 23 -6 c12 -3 28 -6 35 -6 9 0 12
-51 12 -220 l0 -220 24 0 c23 0 24 4 31 83 3 45 5 309 3 586 l-3 504 -735 404
-735 403 -867 0 -867 0 -60 74 c-34 41 -61 77 -61 80 0 3 413 6 918 6 l917 0
70 -41 c39 -22 85 -50 103 -61 17 -11 32 -17 32 -15 0 3 -45 33 -100 66 l-101
61 -921 0 -921 0 23 25 23 25 359 0 358 0 0 305 0 305 -164 0 c-161 0 -164 0
-170 23 -3 12 -6 25 -6 30 0 4 92 7 205 7 l205 0 -6 -42 c-4 -24 -13 -50 -20
-59 -11 -12 -14 -73 -14 -292 l0 -277 345 0 345 0 0 305 0 305 -160 0 -160 0
-10 26 c-6 14 -10 27 -10 30 0 2 95 4 210 4 205 0 210 -1 200 -19 -5 -11 -10
-31 -10 -44 0 -14 -7 -30 -15 -37 -13 -11 -15 -56 -15 -291 l0 -279 161 0 162
0 295 -172 c162 -95 299 -174 304 -176 4 -2 8 150 8 337 l0 340 31 17 c33 17
67 50 102 98 l21 29 -55 -7 c-30 -4 -64 -10 -76 -13 -20 -4 -23 -1 -24 23 0
25 -43 67 -301 297 l-302 267 -843 0 -843 0 -71 47 c-39 26 -66 49 -61 51 6 2
37 -2 68 -7 38 -7 350 -11 907 -11 l849 0 196 -182 c310 -286 313 -288 53 -31
l-246 242 -790 2 c-434 1 -856 4 -936 8 l-146 6 191 145 c188 142 194 148 305
289 62 79 114 150 115 157 3 17 139 144 154 144 6 0 35 -22 65 -50 81 -74 90
-60 13 20 -37 38 -66 75 -64 83 2 7 127 184 277 395 l275 382 126 -373 c70
-204 174 -513 231 -685 l104 -313 88 -112 c58 -74 201 -223 421 -439 l333
-327 22 29 c11 16 21 33 21 37 0 5 20 26 45 47 36 29 43 41 35 51 -8 10 17 65
106 229 65 119 118 215 119 213 1 -1 52 -83 112 -182 73 -120 167 -297 276
-523 90 -187 163 -343 161 -345 -3 -2 33 -12 78 -21 70 -13 156 -16 539 -16
503 0 477 3 493 -62 5 -21 12 -28 31 -28 13 0 27 5 30 10 3 6 37 10 75 10 l68
0 -19 -72 c-19 -75 -37 -98 -74 -98 -16 0 -25 9 -31 33 -8 28 -14 32 -47 35
l-37 3 0 -49 0 -49 -167 -6 c-297 -12 -953 -9 -953 5 0 6 7 38 16 69 l16 58
-138 160 -139 159 -393 4 -392 3 0 -165 0 -165 83 -57 82 -58 324 0 323 0 60
-55 59 -55 799 0 c706 0 799 2 794 15 -5 13 12 15 120 15 105 0 126 -2 126
-15 0 -13 95 -15 798 -15 l798 0 54 55 54 55 324 0 324 0 84 58 83 57 1 165 0
165 -393 -5 -393 -5 -119 -135 c-65 -74 -127 -145 -137 -156 -19 -21 -19 -24
-2 -87 10 -37 16 -68 14 -71 -3 -2 -256 -1 -562 2 l-558 5 0 49 0 49 -37 -3
c-33 -3 -39 -7 -48 -35 -7 -24 -15 -33 -31 -33 -30 0 -53 30 -70 91 -22 83
-23 81 54 76 37 -2 77 -7 89 -12 20 -6 25 -2 42 37 10 25 27 48 36 52 9 3 224
6 477 6 302 0 482 4 523 11 l62 12 163 341 c143 296 269 527 373 679 l25 37
116 -212 c76 -142 112 -216 105 -224 -6 -7 6 -27 38 -60 27 -27 57 -62 69 -78
l20 -29 333 329 c223 219 363 367 422 443 49 62 89 117 89 122 0 5 -144 -146
-321 -336 -176 -190 -322 -345 -324 -345 -2 0 17 44 42 98 39 80 48 109 51
166 2 44 0 71 -7 76 -8 5 -6 21 9 54 l20 47 29 -20 c42 -30 49 -26 16 9 -16
17 -34 30 -40 30 -6 0 -25 -30 -43 -66 -18 -37 -35 -64 -37 -62 -3 2 10 42 29
89 l33 84 40 -1 40 -1 28 78 c28 76 30 78 64 81 27 2 35 7 33 20 -5 31 58 178
76 178 12 0 66 105 197 386 l180 385 155 198 c85 109 157 197 159 195 1 -1
-65 -210 -149 -464 -83 -254 -149 -464 -147 -467 3 -2 75 208 162 467 128 385
160 469 170 458 7 -7 135 -184 284 -392 l272 -380 -73 -73 c-84 -85 -74 -98
14 -18 l60 54 79 -71 c43 -39 77 -75 76 -80 -1 -5 50 -75 113 -157 114 -146
117 -148 307 -291 105 -80 196 -146 202 -148 41 -14 -15 35 -189 166 -197 147
-203 153 -305 284 -58 73 -105 140 -105 149 0 8 -42 62 -93 120 -51 57 -223
285 -381 507 -158 221 -289 402 -291 402 -2 0 -81 -98 -175 -218 l-172 -219
-177 -378 c-122 -261 -182 -380 -195 -385 -13 -4 -32 -38 -56 -101 -32 -82
-39 -94 -62 -97 -22 -3 -30 -14 -53 -77 l-27 -74 -41 -3 -41 -3 -37 -93 c-57
-140 -56 -132 -15 -132 36 0 36 0 36 -42 0 -30 -14 -72 -45 -138 -25 -52 -45
-102 -45 -110 0 -9 -40 -55 -88 -103 l-88 -87 -61 92 c-34 51 -103 170 -153
263 -51 94 -103 189 -117 213 l-25 44 -120 -199 c-80 -132 -176 -313 -287
-542 l-166 -345 -55 -12 c-72 -17 -944 -19 -1020 -3 -43 9 -55 8 -76 -6 -14
-9 -30 -30 -36 -46 -8 -24 -15 -29 -44 -29 -42 0 -45 18 -4 22 22 2 37 12 51
36 l21 32 -97 0 c-92 0 -101 2 -173 38 -65 31 -86 37 -141 37 -56 0 -77 -6
-141 -38 -71 -35 -81 -37 -168 -37 -50 0 -92 -3 -92 -6 0 -21 44 -64 66 -64
13 0 24 -4 24 -10 0 -5 -16 -10 -35 -10 -27 0 -35 4 -35 18 0 9 -9 28 -19 41
-14 18 -27 24 -52 22 -19 -1 -243 -4 -499 -7 -442 -5 -583 0 -617 25 -4 3 -82
157 -171 341 -110 226 -203 399 -284 533 -67 108 -124 197 -128 197 -3 0 -57
-96 -120 -212 -63 -117 -142 -255 -175 -305 l-61 -93 -87 88 c-48 48 -87 96
-87 106 0 10 -20 61 -45 114 -32 67 -45 107 -45 138 0 44 0 44 36 44 30 0 35
3 29 18 -4 9 -23 58 -42 109 l-35 92 -41 3 c-40 3 -40 3 -71 78 -26 63 -36 75
-57 78 -22 3 -29 15 -58 93 -23 61 -40 93 -53 98 -14 5 -75 124 -202 394
l-181 386 -160 202 c-88 111 -165 209 -170 216 -8 11 -77 -79 -302 -394z m468
147 l154 -195 180 -384 c128 -272 186 -386 200 -391 21 -8 80 -147 77 -182 0
-14 7 -18 33 -18 32 0 33 -2 61 -78 l27 -78 41 0 40 1 33 -84 c18 -47 31 -86
29 -89 -3 -2 -19 25 -37 59 -17 35 -33 66 -34 67 -2 2 -19 -9 -39 -24 -42 -34
-40 -45 3 -15 l31 22 22 -47 c17 -35 20 -48 11 -51 -9 -3 -13 -26 -13 -67 0
-52 6 -75 41 -147 66 -135 67 -141 11 -84 -28 28 -173 183 -323 346 l-274 297
-214 658 c-118 363 -217 666 -219 674 -7 22 -8 22 159 -190z m374 -1550 c10
-11 16 -22 13 -25 -3 -3 -11 1 -18 10 -7 8 -25 15 -41 15 -16 0 -29 5 -29 10
0 18 56 10 75 -10z m6560 10 c-3 -5 -19 -10 -35 -10 -16 0 -32 -4 -35 -10 -3
-5 -11 -10 -17 -10 -6 0 -3 9 7 20 19 21 92 30 80 10z m-6563 -67 c25 -23 23
-37 -4 -19 -12 9 -33 16 -45 16 -13 0 -23 5 -23 10 0 16 52 11 72 -7z m6563 7
c4 -6 -5 -10 -20 -10 -14 0 -37 -7 -50 -16 -29 -19 -33 -9 -8 18 17 19 68 25
78 8z m-6561 -75 c11 -8 16 -18 13 -22 -4 -4 -13 -1 -19 5 -7 7 -25 12 -40 12
-15 0 -28 5 -28 10 0 15 52 11 74 -5z m6561 5 c-3 -5 -19 -10 -35 -10 -16 0
-32 -4 -35 -10 -3 -5 -11 -10 -17 -10 -6 0 -3 9 7 20 19 21 92 30 80 10z m385
-40 c0 -89 92 -106 106 -19 8 50 15 54 48 28 25 -20 116 -132 116 -143 0 -3
-94 -6 -210 -6 -116 0 -210 4 -210 9 0 5 20 36 44 69 64 86 106 111 106 62z
m730 -18 c0 -30 26 -62 51 -62 23 0 49 37 49 72 0 40 15 42 54 7 34 -29 106
-120 106 -133 0 -3 -94 -6 -210 -6 -115 0 -210 3 -210 6 0 10 60 93 95 130 29
30 37 35 50 24 8 -7 15 -24 15 -38z m-8962 -6 c12 -44 31 -61 62 -51 19 6 40
46 40 75 0 29 32 25 62 -7 33 -36 88 -114 88 -125 0 -4 -95 -8 -210 -8 -242 0
-230 -9 -139 100 61 73 80 76 97 16z m723 0 c6 -39 21 -56 51 -56 23 0 48 38
48 72 0 56 50 26 123 -73 15 -20 27 -41 27 -47 0 -9 -57 -12 -205 -12 -113 0
-205 4 -205 8 0 12 50 79 88 120 41 43 65 39 73 -12z m561 -3 c25 -23 23 -37
-4 -19 -12 9 -33 16 -45 16 -13 0 -23 5 -23 10 0 16 52 11 72 -7z m6563 7 c4
-6 -6 -10 -22 -10 -16 0 -39 -7 -51 -16 -26 -18 -29 -8 -5 18 17 19 68 25 78
8z m-6555 -75 c16 -19 5 -34 -12 -17 -7 7 -25 12 -40 12 -15 0 -28 5 -28 10 0
16 66 12 80 -5z m6555 5 c-3 -5 -19 -10 -34 -10 -15 0 -32 -5 -39 -12 -6 -6
-15 -9 -19 -5 -3 4 2 14 13 22 22 16 89 21 79 5z m-6445 -78 c0 -20 4 -31 10
-27 6 3 10 18 10 33 1 47 21 -1 34 -81 14 -85 10 -630 -5 -621 -5 3 -9 25 -9
49 0 38 -4 46 -30 62 l-30 17 0 210 0 209 25 -23 c14 -13 28 -20 32 -16 4 4
-14 25 -40 47 -34 29 -47 48 -47 67 l0 26 33 -30 32 -29 -34 37 c-32 35 -33
38 -21 75 7 21 15 42 18 47 8 14 22 -17 22 -52z m6300 -28 c13 -63 7 -79 -50
-124 -49 -39 -54 -63 -5 -26 l35 27 0 -205 0 -206 -35 -22 c-30 -20 -34 -29
-38 -73 -2 -27 -4 56 -6 185 -1 129 -6 259 -10 289 -8 54 8 164 29 199 8 14 9
12 10 -10 0 -15 5 -30 10 -33 6 -4 10 9 10 33 0 78 31 57 50 -34z m-6409 36
c20 -16 21 -19 7 -20 -9 0 -20 5 -23 10 -3 6 -19 10 -36 10 -16 0 -29 5 -29
10 0 18 57 11 81 -10z m6559 10 c0 -5 -15 -10 -33 -10 -18 0 -38 -5 -45 -12
-6 -6 -15 -9 -19 -5 -3 4 2 14 13 22 22 16 84 20 84 5z m-5 -60 c4 -6 -5 -10
-20 -10 -14 0 -37 -7 -50 -16 -31 -20 -33 -1 -3 20 25 18 64 21 73 6z m-6552
-14 c11 -8 14 -17 8 -20 -5 -4 -12 -2 -16 4 -3 5 -22 10 -41 10 -19 0 -34 5
-34 10 0 15 62 12 83 -4z m-1251 -88 l2 -63 3 63 4 62 49 0 50 0 0 -120 0
-120 -105 0 -105 0 0 120 0 120 50 0 50 0 2 -62z m828 -58 l0 -120 -100 0
-100 0 0 120 0 120 100 0 100 0 0 -120z m7410 0 l0 -120 -50 0 -50 0 0 120 0
120 50 0 50 0 0 -120z m110 0 l0 -120 -50 0 -50 0 0 120 0 120 50 0 50 0 0
-120z m720 0 l0 -120 -100 0 -100 0 0 120 0 120 100 0 100 0 0 -120z m-7533
63 c9 -43 10 -44 12 -15 1 34 16 44 24 15 14 -51 29 -125 26 -128 -8 -8 -108
81 -108 96 -1 22 19 79 28 79 4 0 12 -21 18 -47z m5946 3 l15 -44 -56 -46
c-31 -25 -58 -44 -60 -42 -1 2 4 36 13 75 17 75 35 93 36 39 0 -28 2 -30 9
-13 5 11 9 32 9 48 1 40 17 33 34 -17z m-6237 20 c10 -8 16 -18 11 -22 -4 -4
-13 -2 -19 4 -7 7 -25 12 -40 12 -15 0 -28 5 -28 10 0 15 53 12 76 -4z m6559
4 c-3 -5 -19 -10 -34 -10 -15 0 -32 -5 -39 -12 -6 -6 -15 -8 -19 -4 -5 4 1 14
11 22 23 16 91 20 81 4z m-1 -59 c3 -5 -9 -11 -27 -13 -17 -3 -41 -8 -52 -12
-17 -7 -17 -5 4 13 24 21 65 28 75 12z m-6556 -13 c7 -7 12 -16 12 -22 0 -6
-5 -5 -12 2 -7 7 -27 12 -45 12 -18 0 -33 5 -33 10 0 14 64 12 78 -2z m296
-57 l51 -40 -7 -108 c-4 -59 -4 -177 -1 -260 4 -112 3 -153 -5 -153 -7 0 -12
17 -12 43 0 37 -4 45 -30 60 l-30 18 0 195 c0 205 0 203 43 166 14 -13 17 -13
17 -1 0 8 -15 24 -34 36 -29 18 -67 83 -49 83 3 0 29 -18 57 -39z m5937 -10
c-6 -11 -25 -28 -41 -38 -17 -9 -30 -21 -30 -25 0 -13 17 -9 30 7 7 8 16 15
21 15 5 0 9 -85 9 -190 l0 -189 -30 -23 c-25 -18 -30 -29 -30 -65 0 -24 -4
-43 -10 -43 -6 0 -10 81 -10 223 0 122 -3 238 -6 257 -5 33 -2 38 48 78 40 33
54 40 56 29 2 -9 -2 -25 -7 -36z m-162 -25 c10 -38 9 -41 -22 -69 -30 -27 -31
-28 -2 -7 28 20 30 21 34 4 2 -11 -11 -31 -34 -52 -20 -19 -34 -36 -31 -40 4
-3 12 0 18 6 7 7 16 12 20 12 4 0 8 -81 8 -180 l0 -180 -25 -16 c-20 -13 -25
-24 -25 -60 0 -24 -4 -44 -10 -44 -6 0 -11 87 -12 238 -2 302 -1 325 14 375
l11 42 8 -30 c7 -30 7 -30 8 -3 1 36 12 61 21 51 5 -4 13 -26 19 -47z m-6073
30 c10 -8 16 -18 11 -22 -4 -4 -13 -2 -19 4 -7 7 -25 12 -40 12 -15 0 -28 5
-28 10 0 15 53 12 76 -4z m445 -23 c2 -31 3 -33 6 -10 7 43 21 32 32 -25 13
-70 13 -67 12 -345 -1 -155 -5 -243 -11 -243 -5 0 -10 17 -10 38 0 31 -5 41
-25 52 l-25 13 0 184 c0 167 5 205 25 173 3 -5 12 -10 18 -10 7 0 -5 16 -25
35 -35 32 -55 87 -25 69 8 -5 7 -2 -2 9 -11 14 -12 25 -2 57 15 50 31 51 32 3z
m6114 27 c-3 -5 -19 -10 -34 -10 -15 0 -32 -5 -39 -12 -6 -6 -15 -8 -19 -4 -5
4 1 14 11 22 23 16 91 20 81 4z m-6562 -64 c26 -20 22 -41 -5 -22 -12 9 -33
16 -45 16 -13 0 -23 5 -23 10 0 14 52 12 73 -4z m6561 5 c3 -5 -9 -11 -27 -13
-17 -3 -41 -8 -52 -12 -17 -7 -17 -5 4 13 24 21 65 28 75 12z m-7802 -98 l2
-68 3 68 4 67 49 0 50 0 0 -125 0 -125 -102 3 -103 2 -3 123 -3 122 51 0 50 0
2 -67z m828 -58 l0 -124 -100 0 -100 0 0 124 0 125 100 0 100 0 0 -125z m7410
-1 l0 -125 -47 3 -48 3 -3 123 -3 122 51 0 50 0 0 -126z m110 1 l0 -125 -50 0
-50 0 0 125 0 125 50 0 50 0 0 -125z m720 0 l0 -124 -100 0 -100 0 0 124 0
125 100 0 100 0 0 -125z m-7829 85 c10 -6 19 -15 19 -21 0 -6 -7 -6 -19 1 -11
5 -31 10 -45 10 -14 0 -26 5 -26 10 0 13 46 13 71 0z m6564 0 c-3 -5 -19 -10
-34 -10 -15 0 -32 -5 -39 -12 -6 -6 -15 -8 -19 -4 -5 4 1 14 11 22 23 16 91
20 81 4z m-6555 -70 c20 -15 21 -20 8 -20 -9 0 -20 5 -23 10 -3 6 -19 10 -36
10 -16 0 -29 5 -29 10 0 17 54 10 80 -10z m6555 10 c4 -6 -5 -10 -20 -10 -15
0 -35 -5 -47 -11 -27 -14 -36 -2 -12 16 22 17 70 20 79 5z m-6552 -74 c21 -16
9 -29 -13 -15 -8 5 -27 9 -42 9 -16 0 -28 5 -28 10 0 15 62 12 83 -4z m6552 4
c-3 -5 -17 -10 -31 -10 -14 0 -34 -5 -45 -10 -21 -12 -26 -1 -7 18 15 15 92
16 83 2z m-6559 -64 c10 -8 16 -18 11 -22 -4 -4 -13 -2 -19 4 -7 7 -25 12 -40
12 -15 0 -28 5 -28 10 0 15 53 12 76 -4z m3339 -11 c47 -19 39 -31 -10 -15
-37 12 -157 9 -205 -5 -43 -13 -9 11 40 29 52 19 119 15 175 -9z m3220 15 c4
-6 -8 -10 -27 -10 -19 0 -39 -5 -46 -12 -6 -6 -15 -8 -19 -4 -12 12 27 36 58
36 15 0 31 -4 34 -10z m-5669 -46 c-3 -9 -6 -40 -6 -70 l0 -54 -49 0 -49 0 -4
66 c-1 36 -1 68 1 70 2 2 29 4 59 4 45 0 53 -3 48 -16z m340 0 c-3 -9 -6 -40
-6 -70 l0 -54 -49 0 -49 0 -4 66 c-1 36 -1 68 1 70 2 2 29 4 59 4 45 0 53 -3
48 -16z m4130 0 c-3 -9 -6 -40 -6 -70 l0 -54 -49 0 -49 0 -4 66 c-1 36 -1 68
1 70 2 2 29 4 59 4 45 0 53 -3 48 -16z m337 4 c-2 -5 -3 -35 -3 -68 l0 -60
-49 0 -49 0 -4 66 c-1 36 -1 68 2 70 7 8 105 0 103 -8z m-5688 -31 c11 -9 14
-16 7 -21 -6 -3 -13 -2 -17 4 -3 5 -22 10 -41 10 -19 0 -34 5 -34 10 0 15 63
12 85 -3z m6550 4 c-6 -5 -29 -11 -53 -14 -36 -4 -41 -3 -31 9 6 8 29 14 52
14 24 0 37 -4 32 -9z m-3753 -13 c23 -19 30 -48 13 -48 -8 0 -15 7 -15 16 0 9
-9 18 -20 21 -11 3 -17 9 -14 14 7 12 17 11 36 -3z m236 -6 c3 -10 -15 -12
-79 -10 -56 2 -84 7 -87 16 -3 10 15 12 79 10 56 -2 84 -7 87 -16z m562 -2 c0
-6 -35 -10 -85 -10 -50 0 -85 4 -85 10 0 6 35 10 85 10 50 0 85 -4 85 -10z
m99 3 c-9 -2 -22 -16 -29 -31 -11 -22 -14 -24 -18 -9 -5 24 16 47 42 46 14 -1
16 -3 5 -6z m-2233 -49 c-3 -26 -6 -78 -6 -115 0 -39 -4 -69 -10 -69 -6 0 -10
45 -10 115 0 100 2 115 16 115 14 0 16 -8 10 -46z m3568 24 c9 -34 6 -180 -4
-203 -6 -15 -9 -7 -9 31 -1 28 -6 75 -11 104 -10 53 -6 90 10 90 4 0 10 -10
14 -22z m-3490 -74 c-4 -98 -18 -206 -25 -189 -9 25 -11 151 -3 194 8 39 29
35 28 -5z m3410 20 c10 -25 7 -198 -4 -214 -7 -11 -10 3 -10 45 0 33 -5 80
-11 104 -10 43 -5 81 11 81 4 0 11 -7 14 -16z m-4963 -174 c10 -6 19 -15 19
-21 0 -6 -7 -6 -19 1 -11 5 -31 10 -45 10 -14 0 -26 5 -26 10 0 13 46 13 71 0z
m6564 0 c4 -6 -7 -10 -25 -10 -17 0 -40 -5 -51 -10 -10 -6 -19 -7 -19 -2 0 23
83 42 95 22z m-6555 -70 c8 -5 12 -11 10 -13 -9 -7 -90 5 -90 14 0 12 61 11
80 -1z m6555 0 c-3 -5 -17 -10 -31 -10 -14 0 -34 -5 -45 -10 -24 -14 -26 5 -1
19 22 14 85 14 77 1z m-6564 -60 c10 -6 19 -15 19 -21 0 -6 -7 -6 -19 1 -11 5
-31 10 -45 10 -14 0 -26 5 -26 10 0 13 46 13 71 0z m6564 0 c4 -6 -7 -10 -25
-10 -17 0 -40 -5 -51 -10 -24 -14 -26 5 -1 19 22 13 69 14 77 1z m-6561 -66
c9 -3 16 -10 16 -14 0 -10 -82 0 -94 11 -11 10 53 12 78 3z m6561 -4 c-3 -5
-17 -10 -31 -10 -14 0 -34 -5 -45 -10 -24 -14 -26 5 -1 19 22 14 85 14 77 1z
m-7683 -87 l123 -88 -67 -3 c-38 -2 -68 -4 -68 -6 0 -2 7 -19 15 -37 14 -34
14 -34 15 -6 0 15 5 27 10 27 6 0 10 -46 10 -119 l0 -119 213 -52 c116 -28
220 -54 229 -56 15 -4 17 11 20 160 l3 165 30 33 30 33 -32 -29 c-19 -17 -35
-43 -39 -63 -5 -26 -11 -33 -30 -33 -15 0 -24 6 -24 15 0 8 6 15 13 15 6 0 17
16 23 35 l11 34 -66 3 -66 3 124 88 c69 48 130 86 136 83 6 -2 64 -42 129 -87
l117 -84 -69 -5 -69 -5 13 -30 c11 -26 13 -27 14 -7 0 13 6 22 15 22 13 0 15
-30 15 -210 l0 -209 43 -11 c23 -6 48 -13 55 -15 8 -3 12 -25 12 -64 l0 -60
55 -11 55 -11 0 -577 c0 -376 -4 -572 -10 -562 -6 9 -10 224 -10 557 l0 543
-22 5 c-33 8 -1674 325 -1682 325 -3 0 -6 9 -6 21 0 15 5 19 18 15 9 -2 44
-10 77 -16 33 -6 68 -14 78 -16 15 -5 17 3 17 75 l0 79 -94 22 c-87 20 -93 23
-93 46 0 13 1 24 2 24 5 0 460 -110 478 -116 14 -4 17 1 17 25 0 30 1 31 49
31 l50 0 4 -42 4 -43 1 48 2 48 48 -3 47 -3 5 -60 c4 -47 9 -61 23 -63 15 -3
17 6 17 72 l0 76 -125 0 c-112 0 -125 2 -126 18 -1 16 -2 16 -6 0 -6 -22 -53
-25 -53 -3 0 8 6 15 13 15 6 0 17 16 23 35 l11 34 -69 3 -69 3 123 87 c68 48
126 87 130 88 4 0 62 -39 130 -87z m8258 -8 l113 -80 -66 -3 c-37 -2 -67 -4
-67 -6 0 -15 32 -76 40 -76 6 0 10 -7 10 -15 0 -9 -9 -15 -24 -15 -19 0 -25 7
-30 35 -4 19 -18 47 -32 62 l-25 28 20 -30 c11 -16 23 -43 27 -58 l6 -28 -103
1 c-162 2 -149 17 -149 -175 0 -157 1 -163 19 -158 11 3 21 15 23 27 2 17 11
22 47 24 28 2 47 -1 52 -10 5 -7 9 47 9 125 l0 137 50 0 50 0 0 -120 c0 -76 4
-120 10 -120 9 0 296 70 413 101 l37 10 0 119 c0 73 4 120 10 120 6 0 10 -12
10 -27 1 -28 1 -28 20 7 l18 35 -70 5 -70 5 125 88 126 88 127 -91 128 -90
-71 0 -71 0 15 -40 c9 -22 20 -40 25 -40 4 0 8 -7 8 -15 0 -9 -9 -15 -24 -15
-19 0 -24 6 -30 38 -3 23 -16 48 -32 63 l-26 24 26 -39 c14 -21 26 -50 26 -63
l0 -25 -107 2 c-60 1 -116 1 -125 1 -16 -1 -18 -12 -18 -75 0 -69 1 -74 20
-69 16 4 20 15 22 62 l3 56 48 3 47 3 2 -48 2 -48 3 48 4 47 50 0 49 0 0 -34
0 -33 245 62 c135 35 245 63 246 62 0 -1 2 -11 4 -22 4 -18 -7 -23 -93 -45
l-97 -25 -3 -64 c-2 -35 -1 -69 2 -76 3 -10 25 -8 97 6 51 11 94 17 97 15 2
-3 2 -11 -1 -19 -3 -9 -86 -30 -254 -62 -136 -26 -518 -100 -848 -164 l-600
-117 -3 -557 c-1 -360 -6 -557 -12 -557 -7 0 -10 201 -10 574 l0 573 53 9 52
9 3 62 3 62 54 12 55 12 0 214 c0 183 2 213 15 213 10 0 15 -10 15 -27 1 -28
1 -28 15 6 8 18 15 35 15 37 0 2 -30 4 -67 6 l-66 3 123 87 c70 49 129 84 135
80 7 -4 63 -43 125 -87z m-6949 0 l32 -86 29 36 c47 57 69 49 103 -37 l28 -71
26 32 c38 45 67 42 90 -11 33 -78 35 -88 11 -83 -28 5 -40 14 -40 30 0 8 -19
16 -47 22 -44 7 -50 13 -73 55 -34 62 -34 62 -56 36 l-19 -23 21 18 c21 18 22
17 38 -23 20 -49 20 -51 1 -44 -8 3 -17 14 -20 24 -4 12 -21 21 -53 26 -45 9
-48 11 -83 77 l-36 68 -30 -25 c-27 -23 -83 -36 -83 -20 0 3 14 24 31 45 25
31 37 39 64 39 33 0 34 -2 66 -85z m6238 46 c17 -21 31 -42 31 -45 0 -17 -57
-3 -81 20 l-27 26 -27 -53 c-15 -30 -34 -62 -43 -71 -20 -24 -61 -23 -88 3
-18 17 -22 18 -27 5 -4 -9 -1 -13 7 -10 7 3 20 -4 30 -15 17 -19 17 -19 -3
-14 -15 4 -21 1 -21 -10 0 -9 -9 -21 -20 -27 -14 -8 -20 -8 -20 0 0 6 -7 4
-16 -4 -8 -9 -26 -16 -40 -16 -13 0 -24 -5 -24 -11 0 -5 -5 -7 -11 -3 -7 4
-20 -4 -30 -17 -21 -29 -35 -20 -20 13 10 20 10 20 -1 5 -34 -49 -36 -47 -14
13 29 80 55 90 97 39 l27 -34 11 25 c46 112 51 120 69 120 11 0 34 -16 51 -35
l31 -35 13 32 c7 18 22 57 32 86 18 48 21 52 51 52 26 0 39 -8 63 -39z m-6428
-11 c10 -6 19 -15 19 -21 0 -6 -7 -6 -19 1 -11 5 -31 10 -45 10 -14 0 -26 5
-26 10 0 13 46 13 71 0z m6559 0 c0 -5 -12 -10 -26 -10 -14 0 -34 -5 -45 -10
-24 -14 -26 5 -1 19 22 13 72 14 72 1z m-150 -58 c3 -2 -6 -2 -20 0 -19 2 -29
-4 -42 -24 -10 -16 -22 -28 -28 -28 -13 0 -13 1 10 56 l21 47 27 -24 c15 -13
29 -26 32 -27z m-6247 3 c9 -20 17 -40 17 -45 0 -17 -31 3 -40 26 -7 17 -14
21 -32 17 -23 -6 -23 -6 -4 15 27 31 40 27 59 -13z m-153 -15 c8 -5 12 -11 10
-13 -9 -7 -90 5 -90 14 0 12 61 11 80 -1z m6555 1 c-13 -12 -95 -21 -95 -11 0
12 20 18 65 19 23 1 35 -3 30 -8z m-6431 -57 l56 -25 0 -254 0 -253 -62 17
-63 18 -3 261 c-1 150 2 262 7 262 5 0 34 -12 65 -26z m6294 -236 l-3 -262
-44 -13 c-24 -7 -52 -15 -62 -18 -18 -6 -19 5 -19 250 l0 255 53 24 c28 14 58
25 65 25 10 1 12 -55 10 -261z m-6418 232 c8 -5 12 -11 10 -13 -9 -7 -90 5
-90 14 0 12 61 11 80 -1z m6555 0 c4 -6 -7 -10 -25 -10 -17 0 -40 -5 -51 -10
-24 -14 -26 5 -1 19 22 13 69 14 77 1z m-6271 -66 l56 -25 0 -240 c0 -131 -3
-239 -7 -239 -3 0 -30 8 -60 17 l-53 17 0 248 c0 136 2 248 4 248 2 0 29 -12
60 -26z m5966 -224 l0 -249 -41 -11 c-22 -6 -47 -14 -55 -17 -12 -4 -14 31
-14 239 l0 244 48 21 c26 12 50 21 55 22 4 1 7 -111 7 -249z m-6259 230 c10
-6 19 -15 19 -21 0 -6 -7 -6 -19 1 -11 5 -31 10 -45 10 -14 0 -26 5 -26 10 0
13 46 13 71 0z m6564 0 c7 -12 -4 -16 -57 -24 -42 -5 -50 5 -15 22 28 14 64
15 72 2z m-5848 -95 c30 -78 29 -93 -4 -30 -32 63 -30 61 -52 41 -11 -10 -31
-16 -45 -14 l-26 3 26 33 c20 25 33 32 52 30 21 -2 30 -13 49 -63z m5164 28
l33 -38 -47 -9 c-30 -5 -51 -15 -58 -27 -12 -24 -34 -25 -24 -1 17 41 15 44
-5 9 -38 -70 -34 -34 9 76 16 40 51 36 92 -10z m-5423 -8 l42 -17 0 -229 c0
-126 -1 -229 -3 -229 -2 0 -27 7 -55 15 l-52 16 0 235 c0 185 3 235 13 231 6
-3 31 -13 55 -22z m5642 -210 c0 -265 7 -241 -77 -260 l-33 -7 0 229 0 228 48
22 c26 11 50 22 55 22 4 1 7 -105 7 -234z m-6090 215 c8 -5 12 -11 10 -13 -9
-7 -90 5 -90 14 0 12 61 11 80 -1z m6555 1 c-15 -13 -95 -23 -95 -12 0 12 24
18 70 20 20 1 30 -3 25 -8z m435 -111 l0 -120 -50 0 -50 0 0 120 0 120 50 0
50 0 0 -120z m-6300 60 c16 -38 3 -53 -17 -22 -9 12 -24 22 -35 22 -19 0 -19
1 3 19 28 23 32 21 49 -19z m150 -11 c6 -11 17 -37 24 -57 13 -35 12 -38 -5
-39 -10 -1 -25 7 -32 17 -7 10 -29 21 -50 25 l-36 7 25 34 c30 39 58 44 74 13z
m4864 -14 l27 -35 -24 0 c-14 0 -30 7 -37 15 -7 8 -17 15 -22 15 -6 0 0 -9 13
-20 17 -14 20 -19 9 -20 -8 0 -21 -9 -28 -20 -7 -11 -21 -20 -32 -20 -20 0
-20 0 1 52 11 29 23 56 25 60 12 18 43 6 68 -27z m-5713 15 c10 -6 19 -15 19
-21 0 -6 -7 -6 -19 1 -11 5 -31 10 -45 10 -14 0 -26 5 -26 10 0 13 46 13 71 0z
m6564 0 c3 -6 -5 -10 -19 -10 -13 0 -36 -4 -50 -10 -17 -6 -26 -6 -26 1 0 22
83 39 95 19z m-5889 -41 l44 -20 0 -209 c0 -116 -2 -210 -5 -210 -3 0 -32 7
-65 17 l-60 16 0 219 c0 249 -9 229 86 187z m5232 -186 l-3 -216 -35 -12 c-19
-7 -47 -15 -62 -19 l-28 -6 0 212 0 213 48 22 c88 40 83 52 80 -194z m-5904
161 c30 -12 16 -19 -29 -16 -25 2 -45 8 -45 13 0 10 50 12 74 3z m1001 -31
c28 -66 28 -91 0 -40 -22 40 -29 46 -41 37 -8 -7 -14 -15 -14 -17 0 -3 6 0 13
6 11 8 17 3 30 -25 14 -29 17 -68 17 -224 0 -104 -3 -191 -7 -193 -5 -2 -29 3
-55 10 l-48 14 0 190 c0 203 1 205 52 178 23 -12 31 -8 23 13 -4 10 -14 14
-27 10 -14 -3 -19 -1 -14 6 3 6 -3 12 -15 14 l-21 3 22 28 c32 40 66 36 85
-10z m4565 10 l22 -28 -21 -3 c-12 -2 -21 -8 -21 -14 0 -5 -6 -8 -13 -5 -7 3
-19 -4 -25 -14 -16 -26 -36 -26 -22 0 5 11 10 23 10 28 -1 4 -9 -8 -20 -27
-22 -41 -26 -28 -6 21 7 19 16 42 19 52 10 27 52 21 77 -10z m995 18 c-13 -12
-95 -21 -95 -11 0 12 20 18 65 19 23 1 35 -3 30 -8z m-5751 -31 l46 -19 0
-201 c0 -110 -1 -200 -2 -200 -2 0 -23 6 -48 14 l-45 13 -3 207 c-1 113 0 206
2 206 2 0 25 -9 50 -20z m4914 -186 l-3 -207 -45 -13 c-25 -8 -46 -14 -47 -14
-2 0 -3 90 -3 200 l0 199 43 20 c23 11 45 20 50 20 4 1 6 -92 5 -205z m-5711
152 c12 -12 -3 -15 -45 -9 -23 3 -42 10 -42 16 0 10 76 4 87 -7z m6548 4 c4
-6 -7 -10 -25 -10 -17 0 -40 -5 -51 -10 -24 -14 -26 5 -1 19 22 13 69 14 77 1z
m-5406 -55 c25 -66 25 -66 6 -59 -13 5 -15 -18 -15 -174 l0 -180 -47 12 -48
12 -3 188 -2 187 29 -16 c38 -19 52 -19 44 1 -3 8 -12 13 -19 10 -8 -3 -14 -1
-14 4 0 6 -12 10 -27 10 l-27 0 29 30 c45 47 70 41 94 -25z m4265 23 l26 -33
-40 -9 c-21 -5 -41 -15 -44 -22 -4 -12 1 -11 31 1 19 8 37 15 39 15 2 0 4 -82
4 -183 l0 -183 -46 -12 c-26 -7 -48 -11 -50 -9 -6 6 -5 362 1 382 3 11 -1 7
-10 -8 -26 -45 -28 -26 -4 37 26 68 53 75 93 24z m164 -179 l-3 -192 -45 -13
c-25 -8 -48 -14 -52 -14 -5 0 -8 83 -8 185 l0 185 38 19 c75 40 73 45 70 -170z
m-5571 136 c2 -6 -15 -9 -42 -7 -25 2 -45 8 -45 14 0 12 82 6 87 -7z m6548 6
c-13 -12 -95 -21 -95 -11 0 12 20 18 65 19 23 1 35 -3 30 -8z m-5277 -43 c15
-36 17 -70 14 -219 l-3 -177 -47 12 -47 12 -3 172 c-2 159 3 195 23 162 8 -13
35 -13 35 0 0 5 -16 12 -35 16 l-35 6 21 29 c30 42 57 38 77 -13z m3990 13
l22 -30 -30 -6 c-16 -4 -33 -11 -36 -17 -7 -11 11 -8 49 7 16 7 17 -5 17 -164
0 -192 6 -177 -78 -196 l-33 -7 3 170 c2 94 -1 168 -6 165 -9 -6 -2 21 20 74
18 41 43 43 72 4z m-5261 -35 c12 -12 -3 -15 -45 -9 -23 3 -42 10 -42 16 0 10
76 4 87 -7z m6548 4 c4 -6 -6 -10 -22 -10 -15 0 -38 -3 -50 -6 -13 -4 -23 -2
-23 4 0 19 84 30 95 12z m-5150 -52 c11 -28 13 -44 6 -46 -7 -2 -11 -56 -11
-158 0 -85 -2 -154 -4 -154 -1 0 -17 5 -35 11 l-31 11 0 159 c0 145 6 180 25
149 3 -5 12 -10 18 -10 20 1 -26 30 -47 30 -18 0 -18 1 4 25 34 37 55 32 75
-17z m3729 20 c15 -21 14 -23 -14 -34 -36 -16 -39 -27 -5 -18 l25 6 0 -156 0
-156 -26 -10 c-14 -6 -30 -10 -35 -10 -5 0 -9 63 -9 148 0 85 -4 152 -10 158
-7 7 -4 24 7 52 18 48 43 55 67 20z m-5124 -38 c11 -7 0 -10 -37 -10 -29 0
-53 5 -53 10 0 13 70 13 90 0z m6545 1 c-11 -10 -95 -20 -95 -10 0 14 16 19
59 19 27 0 41 -4 36 -9z m-6412 -32 c41 -11 43 -14 22 -35 -8 -9 -15 -24 -15
-33 0 -23 -25 -45 -43 -38 -8 3 -19 26 -26 51 -6 24 -15 48 -21 51 -5 3 -10
11 -10 17 0 10 10 9 93 -13z m6277 7 c0 -8 -4 -16 -8 -18 -5 -1 -15 -23 -23
-48 -18 -57 -48 -63 -65 -12 -6 19 -17 38 -24 42 -20 12 -13 16 50 33 71 19
70 19 70 3z m-6420 -36 c8 -5 12 -11 10 -13 -9 -7 -90 5 -90 14 0 12 61 11 80
-1z m338 -25 c4 -3 0 -10 -8 -15 -7 -4 -18 -23 -24 -42 -15 -47 -38 -42 -56
12 -8 25 -18 50 -22 56 -4 6 -5 14 -2 17 6 5 102 -18 112 -28z m5904 2 c-5 -7
-13 -26 -16 -44 -4 -17 -14 -37 -23 -44 -13 -11 -18 -10 -29 6 -8 10 -14 27
-14 37 0 10 -4 18 -10 18 -5 0 -10 6 -10 14 0 8 22 20 53 28 51 15 69 9 49
-15z m313 23 c4 -6 -8 -10 -29 -10 -19 0 -41 -3 -50 -6 -9 -3 -16 -1 -16 4 0
19 84 30 95 12z m-6117 -45 c29 -9 52 -20 52 -25 0 -6 -4 -10 -9 -10 -4 0 -12
-15 -17 -32 -14 -47 -45 -45 -59 4 -5 20 -13 40 -17 44 -8 7 -11 34 -5 34 2 0
27 -7 55 -15z m5647 -23 c-7 -15 -18 -40 -24 -55 -15 -37 -42 -32 -53 11 -5
17 -13 32 -18 32 -6 0 -10 4 -10 9 0 9 100 40 112 34 4 -2 1 -16 -7 -31z
m-7680 -35 c22 -26 44 -69 58 -112 22 -68 22 -81 22 -587 0 -284 -2 -519 -5
-521 -9 -9 -301 -39 -308 -32 -4 4 -7 250 -7 548 0 533 0 543 22 613 49 155
133 190 218 91z m9803 38 c16 -13 41 -50 55 -82 46 -104 51 -182 44 -717 -4
-269 -9 -491 -11 -493 -6 -6 -299 26 -306 34 -3 2 -5 239 -5 526 0 519 0 522
23 585 54 151 130 206 200 147z m-8198 -5 c0 -5 -20 -10 -45 -10 -25 0 -45 5
-45 10 0 6 20 10 45 10 25 0 45 -4 45 -10z m6545 0 c-3 -5 -26 -10 -51 -10
-24 0 -44 5 -44 10 0 6 23 10 51 10 31 0 48 -4 44 -10z m-5851 -47 c5 -4 3
-11 -5 -17 -8 -6 -20 -23 -26 -38 -19 -42 -40 -34 -68 25 -14 30 -25 56 -25
60 0 5 108 -21 124 -30z m5186 24 c0 -4 -27 -64 -39 -87 -15 -28 -41 -24 -54
9 -6 17 -18 31 -25 31 -8 0 -12 5 -10 12 6 16 128 49 128 35z m-7111 -37 c36
-37 68 -118 81 -208 11 -75 13 -683 4 -844 l-7 -105 -112 -11 c-62 -7 -120
-12 -129 -12 -16 0 -17 38 -14 518 4 572 5 584 69 657 38 43 68 45 108 5z
m9010 1 c31 -31 51 -77 67 -149 11 -53 13 -167 13 -532 -1 -256 -4 -474 -7
-485 -7 -20 -9 -20 -128 -7 l-121 14 -7 76 c-3 41 -6 249 -6 461 0 401 6 475
45 553 42 82 102 111 144 69z m-7789 -1 c8 -5 12 -11 10 -13 -9 -7 -90 5 -90
14 0 12 61 11 80 -1z m6554 1 c6 -9 -84 -22 -94 -14 -2 2 2 8 10 13 19 12 77
13 84 1z m-5742 -13 c21 -6 37 -14 35 -17 -2 -3 -9 -21 -16 -38 -16 -40 -38
-42 -52 -5 -6 15 -15 35 -20 44 -17 33 -9 35 53 16z m4903 -15 c-7 -16 -18
-40 -24 -55 -12 -33 -36 -28 -45 8 -4 13 -11 24 -16 24 -6 0 -10 6 -10 14 0 7
18 18 43 23 67 17 68 16 52 -14z m-6571 -37 c66 -69 70 -97 74 -526 2 -212 1
-417 -3 -456 l-6 -71 -116 -12 c-63 -7 -117 -10 -120 -7 -12 12 -16 782 -4
880 23 199 95 278 175 192z m8289 6 c61 -63 61 -71 65 -599 l3 -483 -33 1
c-18 0 -73 6 -123 12 l-90 12 0 455 c0 418 2 459 19 508 10 30 32 69 48 88 38
43 74 45 111 6z m-7254 -63 c17 -45 29 -84 27 -87 -3 -2 -20 25 -38 62 l-32
66 -27 -26 c-20 -19 -35 -25 -59 -22 l-31 3 36 43 c27 31 44 42 65 42 26 0 31
-6 59 -81z m784 70 c33 -9 52 -29 28 -29 -5 0 -14 -14 -20 -31 -11 -31 -29
-35 -41 -8 -4 8 -14 29 -23 47 -15 30 -15 32 1 32 9 0 34 -5 55 -11z m4617 1
c0 -5 -4 -10 -9 -10 -5 0 -12 -12 -16 -27 -7 -30 -23 -53 -35 -53 -5 0 -13 14
-19 30 -5 17 -15 30 -21 30 -21 0 1 20 33 29 44 13 67 13 67 1z m-5571 -15 c2
-3 2 -8 -2 -11 -9 -10 -87 7 -87 18 0 10 78 3 89 -7z m6411 -25 l32 -40 -35 0
c-21 0 -41 7 -52 20 -10 11 -22 20 -26 20 -5 0 -23 -27 -40 -61 -37 -74 -48
-72 -18 2 11 30 25 64 30 77 6 17 16 22 43 22 28 0 40 -7 66 -40z m133 25 c1
-5 -19 -11 -45 -13 -27 -2 -48 1 -48 7 0 19 89 25 93 6z m-7105 -30 c16 -13
40 -48 53 -77 24 -53 24 -55 27 -479 l3 -426 -48 -6 c-26 -4 -78 -9 -114 -13
l-66 -6 -6 137 c-10 210 -8 600 3 695 12 97 43 169 80 187 33 17 34 17 68 -12z
m871 3 c5 -13 18 -47 30 -75 20 -52 15 -74 -8 -30 l-11 22 6 -23 c5 -22 4 -23
-15 -13 -12 7 -21 18 -21 26 0 10 -10 15 -27 15 l-27 0 32 23 c17 13 29 27 25
31 -4 3 -17 -3 -29 -15 -14 -13 -32 -19 -48 -17 l-27 3 31 38 c37 44 75 50 89
15z m816 -9 c6 -6 6 -12 -1 -17 -7 -4 -13 -16 -15 -27 -7 -33 -43 -25 -54 13
-5 17 -13 32 -17 32 -4 0 -8 5 -8 11 0 14 79 4 95 -12z m4295 18 c0 -2 -9 -22
-20 -45 -23 -47 -47 -54 -56 -17 -3 14 -10 25 -15 25 -22 0 -6 20 24 29 33 9
67 13 67 8z m813 -31 c15 -19 27 -37 27 -39 0 -3 -19 -7 -42 -11 -26 -4 -51
-17 -65 -33 -30 -32 -39 -24 -19 16 9 16 16 34 16 38 -1 4 -12 -14 -26 -40
-14 -27 -27 -47 -29 -45 -3 2 8 36 23 76 25 67 29 72 57 72 22 0 37 -9 58 -34z
m860 14 c14 -11 33 -41 43 -67 17 -43 19 -92 22 -492 l3 -444 -88 7 c-154 13
-140 1 -148 130 -4 61 -5 246 -3 411 5 332 12 374 69 440 36 40 64 44 102 15z
m-6590 -68 c36 -90 33 -111 -4 -39 -16 31 -33 57 -38 57 -4 0 -16 -9 -26 -20
-21 -23 -9 -27 15 -5 15 13 18 10 38 -30 12 -25 18 -45 13 -45 -13 0 -41 29
-41 42 0 6 -9 8 -20 5 -11 -3 -20 -1 -20 3 0 5 -13 10 -30 12 l-29 3 35 43
c53 63 74 58 107 -26z m5851 20 c-13 -2 -26 -12 -29 -23 -4 -10 -16 -24 -27
-30 -17 -9 -20 -9 -16 2 3 8 14 33 23 56 l17 43 27 -23 c28 -22 28 -22 5 -25z
m-6660 8 c52 -62 56 -100 56 -521 0 -361 -1 -388 -17 -393 -10 -2 -51 -8 -90
-11 l-73 -7 0 400 c0 428 5 482 47 532 31 38 45 38 77 0z m454 -16 c13 -26 21
-48 19 -50 -7 -7 -47 28 -47 42 0 8 -10 14 -26 14 l-26 0 23 20 c13 10 26 19
30 20 3 0 15 -21 27 -46z m1103 29 c25 -5 43 -33 21 -33 -5 0 -14 -11 -20 -25
-16 -34 -30 -31 -47 9 -8 19 -19 37 -25 41 -21 13 -10 27 16 21 15 -4 39 -10
55 -13z m4802 -17 c15 -19 27 -37 27 -40 0 -14 -50 -4 -73 15 l-27 20 -27 -55
c-33 -68 -48 -74 -23 -8 10 26 23 59 29 75 16 40 58 37 94 -7z m783 -4 c39
-58 44 -114 44 -529 l0 -395 -87 7 c-49 4 -90 9 -92 11 -3 3 -5 176 -5 387 -1
346 1 388 18 444 20 68 56 116 83 111 10 -2 27 -18 39 -36z m-6836 18 c0 -5
-20 -10 -45 -10 -25 0 -45 5 -45 10 0 6 20 10 45 10 25 0 45 -4 45 -10z m5267
-8 c-10 -10 -17 -26 -17 -34 0 -9 -7 -22 -16 -29 -14 -11 -18 -10 -30 6 -7 11
-18 26 -25 33 -6 7 -9 15 -8 17 7 6 73 23 93 24 18 1 18 0 3 -17z m1278 9
c-12 -11 -95 -19 -95 -9 0 9 27 15 70 17 20 1 30 -3 25 -8z m-5875 -24 c0 -2
11 -31 24 -65 24 -59 22 -86 -3 -39 l-11 22 6 -22 c4 -18 2 -22 -10 -17 -8 3
-18 15 -21 25 -5 15 -12 18 -28 14 -21 -6 -21 -6 2 14 12 12 28 18 35 14 7 -4
7 -1 -1 7 -10 11 -16 11 -31 -3 -18 -16 -62 -24 -62 -11 0 21 48 63 73 63 15
1 27 0 27 -2z m718 -12 c1 -1 -3 -16 -9 -33 -12 -35 -27 -41 -35 -14 -3 9 -10
25 -15 34 -5 10 -9 20 -9 24 0 5 60 -4 68 -11z m3736 -7 c-13 -43 -24 -68 -28
-68 -3 0 -13 14 -22 31 -16 33 -12 44 21 52 35 8 36 7 29 -15z m739 -14 l29
-34 -30 0 c-16 0 -35 7 -42 15 -19 23 -28 18 -54 -32 -31 -60 -33 -47 -4 29
20 50 26 58 48 57 16 0 36 -13 53 -35z m148 0 c22 -25 23 -26 3 -20 -16 5 -23
0 -32 -19 -11 -24 -32 -34 -32 -15 0 8 31 80 35 80 1 0 12 -12 26 -26z m-6026
-3 c17 -3 26 -9 20 -12 -15 -9 -95 2 -95 12 0 10 29 10 75 0z m863 -49 c30
-78 27 -89 -7 -24 -24 47 -29 52 -41 38 -11 -14 -11 -16 2 -11 9 4 20 -6 31
-30 9 -19 15 -35 13 -35 -16 0 -36 14 -36 25 0 8 -17 16 -40 20 -22 4 -40 9
-40 11 0 3 10 18 22 34 14 20 31 30 47 30 22 0 29 -8 49 -58z m4850 28 c12
-16 22 -31 22 -34 0 -2 -18 -7 -40 -11 -23 -4 -40 -12 -40 -20 0 -7 -14 -18
-31 -24 -24 -8 -30 -8 -26 2 2 6 13 36 23 65 16 44 22 52 44 52 17 0 34 -10
48 -30z m841 16 c-10 -8 -89 -13 -89 -5 0 5 21 9 47 9 25 0 44 -2 42 -4z
m-704 -36 c3 -6 -2 -10 -12 -10 -10 0 -27 -9 -36 -21 -26 -30 -31 -18 -11 24
14 30 20 34 35 26 10 -5 21 -14 24 -19z m-4844 -35 c10 -27 19 -51 19 -51 0
-1 -9 -1 -20 0 -10 0 -25 9 -32 18 -7 9 -28 20 -46 25 l-34 8 22 28 c35 44 68
34 91 -28z m4559 25 l21 -30 -22 0 c-12 0 -30 7 -40 16 -13 12 -19 12 -25 3
-4 -7 -3 -10 3 -6 6 4 19 -3 29 -15 15 -17 16 -20 3 -16 -9 4 -20 -2 -27 -13
-15 -24 -33 -25 -26 -1 3 9 -2 6 -11 -8 l-16 -25 5 26 c3 14 12 42 21 62 20
48 54 50 85 7z m-4421 -46 c12 -32 20 -58 19 -59 -6 -6 -48 15 -48 24 0 5 -16
12 -35 15 -19 4 -35 9 -35 12 0 3 9 19 21 35 32 45 53 38 78 -27z m4278 17
l23 -29 -35 -6 c-19 -4 -38 -13 -43 -22 -7 -12 -52 -29 -52 -20 0 2 6 19 14
37 7 19 16 42 19 52 10 26 49 20 74 -12z m-5407 9 c0 -5 -20 -10 -45 -10 -25
0 -45 5 -45 10 0 6 20 10 45 10 25 0 45 -4 45 -10z m6540 0 c0 -5 -20 -10 -45
-10 -25 0 -45 5 -45 10 0 6 20 10 45 10 25 0 45 -4 45 -10z m-5266 -43 c9 -23
16 -46 16 -50 0 -13 -27 -7 -40 8 -7 8 -27 17 -46 21 l-33 6 21 29 c32 43 62
39 82 -14z m3985 14 l21 -29 -34 -6 c-19 -4 -37 -14 -40 -22 -4 -10 -13 -14
-22 -10 -8 3 -12 2 -9 -4 3 -6 1 -10 -4 -10 -15 0 -14 12 9 64 23 55 49 60 79
17z m-3873 -22 c30 -62 25 -89 -9 -54 -8 7 -26 17 -41 21 -32 8 -32 11 -4 41
26 27 39 26 54 -8z m3739 -1 c15 -22 14 -23 -12 -32 -16 -5 -32 -15 -36 -22
-9 -15 -37 -19 -37 -5 0 5 7 25 15 45 18 42 46 48 70 14z m-5147 -4 c38 -10
24 -19 -23 -16 -25 2 -45 8 -45 13 0 10 34 12 68 3z m6572 -3 c0 -9 -90 -21
-100 -14 -2 2 2 8 10 13 19 12 90 13 90 1z m-6545 -71 c4 -6 -13 -10 -44 -10
-28 0 -51 5 -51 10 0 6 20 10 44 10 25 0 48 -4 51 -10z m6545 0 c0 -5 -22 -10
-50 -10 -27 0 -50 5 -50 10 0 6 23 10 50 10 28 0 50 -4 50 -10z m-6545 -60 c4
-6 -13 -10 -44 -10 -28 0 -51 5 -51 10 0 6 20 10 44 10 25 0 48 -4 51 -10z
m6540 0 c4 -6 -13 -10 -44 -10 -28 0 -51 5 -51 10 0 6 20 10 44 10 25 0 48 -4
51 -10z m-6535 -70 c0 -5 -22 -10 -50 -10 -27 0 -50 5 -50 10 0 6 23 10 50 10
28 0 50 -4 50 -10z m6535 0 c-3 -5 -26 -10 -51 -10 -24 0 -44 5 -44 10 0 6 23
10 51 10 31 0 48 -4 44 -10z m-6545 -60 c0 -5 -20 -10 -45 -10 -25 0 -45 5
-45 10 0 6 20 10 45 10 25 0 45 -4 45 -10z m6545 0 c4 -6 -13 -10 -44 -10 -28
0 -51 5 -51 10 0 6 20 10 44 10 25 0 48 -4 51 -10z m-6545 -70 c0 -5 -20 -10
-45 -10 -25 0 -45 5 -45 10 0 6 20 10 45 10 25 0 45 -4 45 -10z m6545 0 c-3
-5 -26 -10 -51 -10 -24 0 -44 5 -44 10 0 6 23 10 51 10 31 0 48 -4 44 -10z
m-6545 -60 c0 -5 -23 -10 -51 -10 -31 0 -48 4 -44 10 3 6 26 10 51 10 24 0 44
-4 44 -10z m6545 0 c4 -6 -13 -10 -44 -10 -28 0 -51 5 -51 10 0 6 20 10 44 10
25 0 48 -4 51 -10z m-6545 -70 c0 -5 -20 -10 -45 -10 -25 0 -45 5 -45 10 0 6
20 10 45 10 25 0 45 -4 45 -10z m6540 0 c0 -5 -20 -10 -45 -10 -25 0 -45 5
-45 10 0 6 20 10 45 10 25 0 45 -4 45 -10z m-6540 -60 c0 -5 -20 -10 -45 -10
-25 0 -45 5 -45 10 0 6 20 10 45 10 25 0 45 -4 45 -10z m6545 0 c-3 -5 -26
-10 -51 -10 -24 0 -44 5 -44 10 0 6 23 10 51 10 31 0 48 -4 44 -10z m-6545
-60 c0 -5 -23 -10 -51 -10 -31 0 -48 4 -44 10 3 6 26 10 51 10 24 0 44 -4 44
-10z m6545 0 c4 -6 -13 -10 -44 -10 -28 0 -51 5 -51 10 0 6 20 10 44 10 25 0
48 -4 51 -10z m-3 -72 c-12 -12 -84 -6 -89 7 -2 6 17 9 48 6 33 -2 47 -7 41
-13z m-6542 2 c0 -5 -20 -10 -45 -10 -25 0 -45 5 -45 10 0 6 20 10 45 10 25 0
45 -4 45 -10z"/>
<path d="M3761 8169 c-1 -121 0 -126 24 -149 l25 -23 -1 99 c0 82 -4 107 -24
149 l-23 50 -1 -126z"/>
<path d="M3885 8170 c-3 -5 0 -10 7 -10 16 0 61 -97 47 -102 -4 -2 -4 -10 1
-18 7 -12 12 -12 22 -2 10 10 6 25 -20 77 -31 63 -44 76 -57 55z"/>
<path d="M3870 8028 c0 -76 4 -98 20 -118 l19 -25 -5 95 c-6 112 -11 140 -24
140 -6 0 -10 -39 -10 -92z"/>
<path d="M3993 7963 c-9 -3 -13 -27 -13 -72 0 -60 3 -70 30 -101 l29 -35 1 92
c0 119 -6 133 -47 116z"/>
<path d="M9978 7434 c-56 -46 -68 -59 -43 -45 25 14 102 81 93 81 -3 0 -26
-16 -50 -36z"/>
<path d="M2297 6327 c-48 -35 -54 -42 -39 -48 11 -4 39 -1 64 8 40 13 49 13
80 0 19 -8 47 -12 62 -10 26 5 24 8 -38 49 -36 24 -67 44 -68 43 -2 0 -29 -19
-61 -42z"/>
<path d="M3031 6326 c-54 -38 -59 -45 -39 -48 13 -2 41 3 64 10 34 11 47 11
83 -2 24 -8 52 -11 63 -7 17 6 11 13 -39 47 -32 21 -60 40 -63 42 -3 1 -34
-18 -69 -42z"/>
<path d="M2353 6263 c9 -2 23 -2 30 0 6 3 -1 5 -18 5 -16 0 -22 -2 -12 -5z"/>
<path d="M2286 6234 c-14 -15 -26 -34 -26 -43 0 -9 8 -3 19 16 11 17 28 36 38
42 10 6 13 11 7 11 -6 0 -23 -12 -38 -26z"/>
<path d="M2430 6238 c7 -10 18 -35 26 -55 12 -34 13 -35 14 -11 0 16 -11 39
-26 55 -15 15 -21 20 -14 11z"/>
<path d="M3166 6230 c6 -8 16 -24 22 -35 6 -11 12 -15 12 -8 0 7 -10 22 -22
35 -13 13 -18 17 -12 8z"/>
<path d="M3201 6158 c-1 -15 -15 -18 -98 -20 -66 -2 -98 -7 -101 -15 -2 -9 10
-13 42 -13 l46 0 0 -120 0 -120 -42 -2 -43 -1 40 -4 c22 -3 43 -10 47 -16 4
-7 8 50 8 126 l0 137 51 0 50 0 -1 -122 c-2 -182 -2 -175 20 -181 19 -5 20 0
20 159 0 136 -2 164 -14 164 -8 0 -17 10 -19 23 -3 14 -5 16 -6 5z"/>
<path d="M1788 6133 c7 -3 16 -2 19 1 4 3 -2 6 -13 5 -11 0 -14 -3 -6 -6z"/>
<path d="M2000 5996 l0 -83 31 -7 c17 -3 35 -6 40 -6 5 0 9 38 9 84 0 78 -1
84 -22 90 -56 15 -58 12 -58 -78z"/>
<path d="M2110 5966 l0 -73 75 -15 75 -15 0 68 0 68 -42 11 c-24 6 -58 15 -75
20 l-33 8 0 -72z"/>
<path d="M2300 5931 c0 -73 2 -81 19 -81 11 0 26 -3 35 -6 14 -5 16 5 16 75 0
58 -4 81 -12 81 -7 0 -23 3 -35 6 -22 6 -23 4 -23 -75z"/>
<path d="M2390 5904 c0 -58 2 -64 23 -69 63 -14 113 -25 120 -25 13 0 8 120
-5 125 -7 3 -41 11 -75 19 l-63 14 0 -64z"/>
<path d="M2580 5871 c0 -63 2 -69 23 -75 12 -3 25 -6 30 -6 4 0 7 31 7 69 0
63 -2 69 -22 75 -13 3 -26 6 -30 6 -5 0 -8 -31 -8 -69z"/>
<path d="M2660 5842 l0 -58 60 -10 60 -10 0 56 0 57 -51 11 c-28 7 -55 12 -60
12 -5 0 -9 -26 -9 -58z"/>
<path d="M2812 5818 c3 -60 4 -63 31 -66 27 -3 27 -3 27 56 0 61 -7 72 -46 72
-12 0 -14 -13 -12 -62z"/>
<path d="M2890 5796 l0 -54 50 -11 c28 -6 53 -11 55 -11 3 0 5 22 5 50 l0 49
-42 11 c-24 6 -49 13 -55 15 -9 3 -13 -11 -13 -49z"/>
<path d="M3032 5773 c2 -46 7 -59 21 -61 14 -3 17 5 17 51 0 51 -9 67 -36 67
-3 0 -4 -26 -2 -57z"/>
<path d="M3100 5750 c0 -47 1 -49 33 -55 17 -4 40 -9 50 -12 16 -4 18 1 15 43
l-3 48 -47 12 -48 12 0 -48z"/>
<path d="M3230 5725 c0 -30 5 -55 10 -55 6 0 10 25 10 55 0 30 -4 55 -10 55
-5 0 -10 -25 -10 -55z"/>
<path d="M3270 5714 c0 -46 1 -47 53 -58 26 -6 27 -5 27 38 0 43 -1 44 -40 54
l-40 10 0 -44z"/>
<path d="M10531 6224 c-12 -15 -21 -34 -20 -43 0 -10 4 -6 10 9 6 13 17 33 26
42 9 10 13 18 10 18 -3 0 -15 -12 -26 -26z"/>
<path d="M11261 6224 c-12 -15 -21 -38 -21 -53 1 -23 3 -21 14 12 8 20 19 44
26 52 7 8 10 15 7 15 -3 0 -15 -12 -26 -26z"/>
<path d="M11648 6073 c-15 -4 -18 -17 -18 -90 l0 -85 31 6 c17 3 35 6 40 6 5
0 9 38 9 85 0 92 -2 94 -62 78z"/>
<path d="M11560 6028 c-19 -5 -52 -14 -72 -19 l-38 -10 0 -68 0 -68 75 15 75
15 0 73 c0 41 -1 74 -2 73 -2 0 -19 -5 -38 -11z"/>
<path d="M11363 6003 c-22 -4 -23 -9 -23 -85 0 -69 2 -79 16 -74 9 3 24 6 35
6 17 0 19 8 19 80 0 84 1 82 -47 73z"/>
<path d="M11238 5952 l-68 -16 0 -64 c0 -55 2 -63 18 -59 9 3 35 8 57 12 77
12 75 10 75 81 0 35 -3 63 -7 63 -5 -1 -38 -9 -75 -17z"/>
<path d="M11088 5933 c-15 -4 -18 -16 -18 -75 0 -68 1 -70 23 -64 12 3 25 6
30 6 4 0 7 32 7 70 0 72 -1 74 -42 63z"/>
<path d="M10973 5887 l-43 -10 0 -57 0 -57 58 11 57 12 3 57 c3 64 4 63 -75
44z"/>
<path d="M10853 5873 c-9 -3 -13 -26 -13 -64 0 -60 0 -60 28 -57 26 3 27 6 30
66 3 64 -4 72 -45 55z"/>
<path d="M10805 5845 c-5 -2 -29 -9 -52 -15 l-43 -11 0 -49 c0 -28 2 -50 5
-50 2 0 27 5 55 11 l50 11 0 54 c0 30 -1 54 -2 53 -2 0 -7 -2 -13 -4z"/>
<path d="M10648 5823 c-14 -4 -18 -15 -18 -59 0 -52 2 -55 23 -52 19 3 22 10
25 61 2 31 -1 56 -5 56 -4 -1 -16 -3 -25 -6z"/>
<path d="M10540 5781 c-22 -6 -25 -13 -28 -55 -3 -42 -1 -47 15 -43 10 3 33 8
51 12 30 6 32 9 32 51 0 47 -9 52 -70 35z"/>
<path d="M10460 5725 c0 -30 5 -55 10 -55 6 0 10 25 10 55 0 30 -4 55 -10 55
-5 0 -10 -25 -10 -55z"/>
<path d="M10383 5743 c-20 -4 -23 -11 -23 -50 0 -42 2 -45 23 -39 12 3 30 6
40 6 14 0 17 9 17 45 0 48 -2 49 -57 38z"/>
<path d="M4056 6175 c-11 -8 -16 -15 -10 -15 5 0 18 7 28 15 11 8 16 15 10 15
-5 0 -18 -7 -28 -15z"/>
<path d="M9414 6088 c-4 -7 -3 -10 1 -5 5 4 18 -1 29 -10 21 -18 21 -18 2 5
-22 26 -23 26 -32 10z"/>
<path d="M4419 6003 c-13 -17 -13 -17 6 -3 11 8 22 16 24 17 2 2 0 3 -6 3 -6
0 -17 -8 -24 -17z"/>
<path d="M4460 5985 c0 -5 5 -17 10 -25 5 -8 10 -10 10 -5 0 6 -5 17 -10 25
-5 8 -10 11 -10 5z"/>
<path d="M9120 5946 c0 -2 8 -10 18 -17 15 -13 16 -12 3 4 -13 16 -21 21 -21
13z"/>
<path d="M8970 5876 c0 -2 8 -10 18 -17 15 -13 16 -12 3 4 -13 16 -21 21 -21
13z"/>
<path d="M9803 5380 c14 -11 28 -20 32 -20 4 0 -4 9 -18 20 -14 11 -28 20 -32
20 -4 0 4 -9 18 -20z"/>
<path d="M9260 5296 c0 -2 7 -7 16 -10 8 -3 12 -2 9 4 -6 10 -25 14 -25 6z"/>
<path d="M4576 5272 c-3 -5 1 -9 9 -9 8 0 12 4 9 9 -3 4 -7 8 -9 8 -2 0 -6 -4
-9 -8z"/>
<path d="M4600 5245 c0 -5 5 -17 10 -25 5 -8 10 -10 10 -5 0 6 -5 17 -10 25
-5 8 -10 11 -10 5z"/>
<path d="M1290 9366 c-164 -61 -324 -188 -414 -329 -75 -118 -133 -286 -162
-475 -16 -104 -16 -113 0 -137 21 -32 27 -31 104 5 226 107 379 296 457 566
38 131 76 385 58 383 -4 0 -24 -6 -43 -13z m-190 -431 c-111 -250 -203 -388
-314 -474 -62 -48 -89 -56 -31 -9 113 92 203 223 323 470 48 97 88 176 89 174
2 -2 -28 -74 -67 -161z"/>
<path d="M12505 8974 c-10 -10 -15 -29 -13 -48 l3 -31 -62 3 c-34 2 -78 -1
-97 -8 -67 -22 -94 -87 -62 -149 15 -27 69 -80 101 -98 14 -8 14 -12 1 -38
-13 -25 -13 -33 -2 -50 7 -11 22 -25 33 -30 20 -10 20 -11 -4 -29 -17 -12 -23
-26 -21 -44 3 -27 3 -27 82 -25 71 3 77 1 71 -15 -16 -39 -17 -53 -1 -77 19
-29 60 -33 94 -9 12 8 22 14 22 12 0 -2 -4 -19 -10 -37 -7 -24 -6 -39 1 -48
18 -21 65 -15 98 13 20 16 31 21 31 12 0 -7 23 -35 51 -62 46 -46 51 -48 66
-33 16 15 14 22 -25 100 -24 46 -74 126 -112 178 -39 51 -54 76 -34 54 30 -33
146 -193 191 -262 11 -16 12 -16 12 9 1 38 -45 251 -59 278 -10 18 -14 20 -21
9 -6 -9 -9 2 -9 32 0 73 -29 222 -47 241 -24 27 -42 22 -59 -17 -8 -19 -16
-35 -19 -35 -3 0 -23 38 -44 85 -22 46 -51 96 -65 110 -29 29 -67 32 -91 9z"/>
<path d="M19534 8956 c-108 -50 -160 -179 -119 -295 41 -118 155 -180 280
-152 175 39 245 253 128 390 -70 82 -186 105 -289 57z"/>
<path d="M25782 8959 c-167 -83 -177 -325 -18 -424 43 -26 59 -30 120 -30 85
1 136 24 188 85 76 88 77 209 3 306 -60 78 -201 108 -293 63z"/>
<path d="M333 8893 c-148 -330 -161 -740 -33 -1046 37 -89 128 -231 152 -235
14 -3 13 5 -8 58 -68 166 -89 323 -79 575 13 331 20 340 20 25 0 -327 7 -401
52 -545 32 -100 40 -116 58 -109 30 12 103 240 126 394 19 130 7 373 -24 491
-44 168 -123 334 -202 427 l-31 35 -31 -70z"/>
<path d="M18935 8816 l-190 -73 -3 -942 -2 -941 195 0 195 0 0 1015 c0 558 -1
1015 -2 1014 -2 0 -88 -33 -193 -73z"/>
<path d="M3000 8745 c-87 -87 -89 -114 -2 -31 32 31 62 56 67 56 4 0 36 -25
70 -55 59 -51 85 -66 85 -47 0 4 -33 40 -73 80 l-72 72 -75 -75z"/>
<path d="M10562 8747 c-39 -40 -72 -76 -72 -80 0 -18 27 -3 83 48 34 30 65 55
70 55 4 0 35 -25 68 -56 88 -81 87 -57 -2 31 l-74 75 -73 -73z"/>
<path d="M15440 7841 l0 -981 210 0 210 0 0 325 0 325 229 0 c269 0 336 10
460 71 215 106 341 322 341 584 0 311 -167 538 -460 626 -72 22 -94 23 -532
27 l-458 4 0 -981z m831 595 c113 -41 173 -135 173 -271 0 -131 -52 -219 -158
-267 -47 -21 -68 -23 -243 -26 l-193 -4 0 290 c0 159 3 292 8 296 4 5 88 6
187 3 135 -3 191 -8 226 -21z"/>
<path d="M20455 8670 l-180 -69 -3 -185 -2 -186 -120 0 -120 0 0 -165 0 -165
115 0 115 0 0 -349 c0 -192 5 -372 10 -401 30 -157 125 -262 283 -312 73 -23
232 -27 340 -8 l67 12 0 168 0 167 -87 -4 c-78 -4 -93 -2 -133 19 -83 43 -85
49 -88 401 l-3 307 155 0 156 0 0 165 0 165 -155 0 -155 0 0 255 c0 140 -3
255 -7 254 -5 -1 -89 -32 -188 -69z"/>
<path d="M2439 8698 l-44 -33 48 -3 c26 -2 68 -2 94 0 l48 3 -45 33 c-24 17
-47 32 -50 32 -4 0 -27 -15 -51 -32z"/>
<path d="M3020 8698 l-45 -33 48 -3 c26 -2 68 -2 94 0 l48 3 -45 33 c-24 17
-47 32 -50 32 -3 0 -26 -15 -50 -32z"/>
<path d="M10593 8699 c-24 -17 -43 -32 -43 -35 0 -2 42 -4 93 -4 l92 1 -40 34
c-22 19 -44 35 -50 34 -5 0 -29 -13 -52 -30z"/>
<path d="M11171 8697 l-43 -32 46 -3 c25 -2 69 -2 97 0 l51 3 -45 33 c-25 17
-49 32 -54 32 -4 -1 -28 -15 -52 -33z"/>
<path d="M2412 8612 c-7 -5 -15 -33 -19 -63 -3 -30 -19 -85 -35 -123 -32 -74
-31 -96 4 -96 12 0 47 -10 76 -22 53 -22 54 -22 100 -4 26 10 59 20 75 23 15
3 29 9 32 13 3 5 -11 46 -30 91 -19 46 -35 98 -35 117 0 62 -13 72 -88 72 -37
0 -73 -4 -80 -8z m138 -117 l0 -85 -60 0 -60 0 0 85 0 85 60 0 60 0 0 -85z"/>
<path d="M2986 8611 c-4 -5 -9 -31 -12 -58 -3 -26 -19 -80 -36 -120 -17 -40
-28 -79 -25 -86 3 -8 20 -17 39 -20 18 -3 53 -12 77 -22 42 -15 48 -15 90 0
25 9 58 19 74 22 15 3 30 9 32 14 3 4 -10 46 -30 93 -19 47 -35 102 -35 123 0
22 -5 44 -12 51 -14 14 -154 17 -162 3z m144 -111 l0 -80 -60 0 -60 0 0 80 0
80 60 0 60 0 0 -80z"/>
<path d="M10562 8608 c-7 -7 -12 -31 -12 -54 0 -24 -13 -72 -30 -112 -38 -89
-39 -112 -5 -112 14 0 36 -6 48 -14 42 -27 83 -29 133 -7 25 12 57 21 71 21
37 0 38 25 4 102 -19 43 -31 87 -31 114 0 61 -17 74 -99 74 -39 0 -72 -5 -79
-12z m146 -110 l-3 -83 -60 0 -60 0 -3 83 -3 82 66 0 66 0 -3 -82z"/>
<path d="M11142 8608 c-7 -7 -12 -30 -12 -52 -1 -23 -16 -76 -35 -121 -35 -83
-34 -105 7 -105 10 0 30 -7 44 -17 14 -9 45 -16 69 -16 24 0 55 7 69 16 14 10
36 17 48 17 53 1 55 12 15 109 -20 50 -37 106 -37 124 0 47 -15 57 -90 57 -38
0 -71 -5 -78 -12z m138 -108 l0 -80 -60 0 -60 0 0 80 0 80 60 0 60 0 0 -80z"/>
<path d="M13422 8550 c-25 -11 -74 -83 -98 -147 -9 -23 -20 -43 -23 -43 -4 0
-12 14 -18 30 -15 39 -38 38 -64 -2 -19 -30 -20 -43 -15 -159 3 -69 9 -147 13
-174 l6 -48 -32 23 c-43 33 -56 17 -55 -68 0 -49 9 -91 32 -157 31 -87 42
-136 23 -106 -18 28 -22 -12 -16 -147 6 -142 12 -188 21 -179 4 3 30 102 59
219 30 117 54 208 54 202 1 -11 -85 -416 -95 -447 -7 -22 21 -34 41 -17 8 7
15 20 15 30 0 9 11 34 25 55 14 20 25 47 23 59 -2 15 2 20 12 17 50 -13 72
-12 90 4 25 23 25 63 0 95 -26 34 -25 37 11 32 22 -3 37 2 55 19 31 29 33 101
4 139 -27 34 -25 44 15 97 37 48 65 125 65 178 0 35 -24 75 -46 75 -13 0 -14
19 -8 138 8 167 1 222 -32 262 -28 33 -29 33 -62 20z m-105 -732 c-3 -8 -6 -5
-6 6 -1 11 2 17 5 13 3 -3 4 -12 1 -19z"/>
<path d="M9922 8247 c-18 -42 -22 -72 -22 -152 l1 -100 24 28 c24 27 25 34 25
153 0 68 -1 124 -3 124 -2 0 -13 -24 -25 -53z"/>
<path d="M17580 8255 c-159 -36 -255 -88 -366 -199 -146 -145 -212 -327 -201
-550 9 -199 70 -339 207 -477 72 -74 99 -93 180 -132 122 -58 215 -79 355 -79
361 0 641 207 725 536 25 99 27 266 4 369 -20 91 -80 216 -139 289 -83 103
-229 195 -370 234 -85 23 -310 28 -395 9z m308 -377 c142 -53 232 -231 202
-399 -33 -180 -164 -293 -339 -291 -133 1 -236 64 -293 180 -32 64 -33 72 -33
182 0 107 2 119 29 173 80 156 257 220 434 155z"/>
<path d="M21660 8254 c-36 -7 -107 -34 -159 -60 -161 -79 -278 -217 -338 -399
-25 -73 -27 -93 -28 -245 0 -146 3 -174 23 -240 109 -347 394 -522 797 -489
144 11 249 39 363 95 l92 46 0 175 c0 167 -1 175 -17 161 -72 -61 -258 -130
-401 -149 -230 -31 -421 71 -448 238 l-7 43 484 2 484 3 3 107 c10 366 -189
647 -503 713 -87 18 -259 18 -345 -1z m292 -329 c64 -22 131 -96 152 -165 9
-29 13 -56 10 -61 -3 -5 -131 -9 -285 -9 l-279 0 0 23 c1 34 38 108 73 145 34
36 93 70 142 83 41 11 130 3 187 -16z"/>
<path d="M23245 8256 c-321 -74 -528 -301 -564 -619 -27 -235 45 -454 199
-607 42 -41 101 -90 133 -109 135 -80 324 -117 505 -100 105 10 146 19 250 55
l72 26 0 203 0 202 -86 -43 c-114 -57 -210 -78 -329 -72 -70 4 -105 11 -147
31 -210 96 -263 392 -102 566 72 78 130 103 249 109 119 5 216 -16 328 -72
l87 -43 0 199 0 199 -45 20 c-24 11 -79 29 -122 40 -101 27 -338 35 -428 15z"/>
<path d="M24753 8255 c-66 -18 -136 -54 -196 -99 l-47 -36 0 55 0 55 -190 0
-190 0 0 -685 0 -685 195 0 195 0 0 458 0 458 43 41 c118 116 292 125 384 20
60 -68 63 -95 63 -559 l0 -418 195 0 196 0 -3 518 c-3 498 -4 519 -25 573 -77
204 -254 320 -488 318 -44 0 -104 -7 -132 -14z"/>
<path d="M26895 8256 c-381 -88 -600 -393 -564 -787 11 -116 30 -183 80 -280
94 -181 264 -306 482 -354 61 -13 108 -16 220 -12 146 5 218 18 326 62 l56 23
3 201 c1 111 1 201 -1 201 -1 0 -41 -20 -88 -44 -113 -58 -213 -80 -333 -73
-108 6 -165 28 -232 89 -147 136 -147 390 0 526 68 63 124 84 233 90 119 6
213 -15 329 -73 49 -25 90 -45 92 -45 1 0 2 89 2 199 l0 199 -48 20 c-111 48
-192 64 -347 68 -105 3 -168 0 -210 -10z"/>
<path d="M28256 8254 c-413 -92 -644 -485 -535 -911 58 -229 226 -406 464
-490 76 -26 89 -28 255 -28 166 0 179 2 255 28 396 138 590 548 450 950 -35
101 -81 172 -165 257 -82 83 -180 140 -305 180 -93 30 -316 37 -419 14z m327
-381 c130 -58 204 -192 195 -352 -13 -217 -178 -357 -390 -329 -158 20 -272
148 -285 321 -22 286 226 472 480 360z"/>
<path d="M19450 7545 l0 -685 195 0 195 0 0 685 0 685 -195 0 -195 0 0 -685z"/>
<path d="M25690 7545 l0 -685 195 0 195 0 0 685 0 685 -195 0 -195 0 0 -685z"/>
<path d="M9777 8123 c-25 -48 -33 -74 -26 -84 8 -12 10 -12 19 1 6 9 6 16 0
18 -12 4 35 99 52 105 10 3 10 7 1 17 -9 10 -19 -3 -46 -57z"/>
<path d="M9813 8103 c-8 -13 -13 -60 -13 -120 0 -90 1 -96 15 -76 12 17 15 45
13 120 -3 84 -5 95 -15 76z"/>
<path d="M9897 7805 c-120 -118 -216 -215 -214 -215 3 0 101 90 218 200 l214
200 845 0 c657 1 861 4 915 14 60 12 -55 14 -845 14 l-915 1 -218 -214z"/>
<path d="M9676 7954 c-3 -9 -6 -57 -6 -107 l1 -92 29 33 c27 29 30 39 30 101
0 54 -4 70 -16 75 -24 9 -31 7 -38 -10z"/>
<path d="M891 7830 c-201 -110 -346 -314 -411 -578 -48 -193 -48 -512 0 -512
11 0 142 194 176 261 32 64 75 196 126 392 23 86 43 156 45 154 5 -6 -65 -303
-93 -397 -37 -119 -103 -246 -178 -339 -38 -47 -61 -83 -55 -87 17 -10 142 81
206 149 111 119 176 238 220 403 23 87 26 123 30 304 3 113 1 222 -4 242 l-8
37 -54 -29z"/>
<path d="M12832 7808 c-7 -7 -12 -22 -12 -35 0 -28 -3 -28 -58 -1 -25 11 -65
22 -89 22 -37 1 -49 -4 -69 -27 -41 -48 -30 -97 52 -235 19 -33 19 -33 -2 -50
-52 -41 -29 -100 61 -157 30 -20 55 -39 55 -43 0 -4 -7 -16 -15 -26 -19 -26
-19 -80 0 -96 18 -15 62 -17 90 -5 19 9 20 8 2 -18 -45 -69 -5 -102 91 -72 19
6 22 4 22 -18 0 -13 7 -30 16 -37 8 -8 21 -28 29 -47 15 -35 41 -44 52 -17 8
22 -23 131 -78 267 -26 64 -45 117 -43 117 8 0 60 -113 105 -230 l47 -124 7
49 c8 52 1 229 -11 258 -5 14 -9 15 -22 5 -13 -11 -14 -10 -9 7 17 55 36 202
31 236 -4 21 -15 46 -26 56 -19 17 -21 17 -48 -16 l-27 -34 -18 94 c-19 103
-33 146 -59 172 -20 20 -57 22 -74 5z m88 -448 c6 -11 8 -20 6 -20 -3 0 -10 9
-16 20 -6 11 -8 20 -6 20 3 0 10 -9 16 -20z"/>
<path d="M9609 7523 c-13 -16 -12 -17 4 -4 9 7 17 15 17 17 0 8 -8 3 -21 -13z"/>
<path d="M4789 7483 l-34 -38 32 29 33 30 22 -20 c49 -43 61 -46 23 -6 -21 23
-40 42 -40 42 -1 0 -17 -17 -36 -37z"/>
<path d="M8845 7478 c-38 -40 -26 -37 22 5 21 19 22 19 60 -9 l38 -28 -34 37
c-19 20 -38 37 -41 37 -3 0 -24 -19 -45 -42z"/>
<path d="M4510 7486 c0 -2 8 -10 18 -17 15 -13 16 -12 3 4 -13 16 -21 21 -21
13z"/>
<path d="M4464 7455 c-18 -13 -16 -14 26 -14 42 0 44 1 26 14 -11 8 -23 15
-26 15 -3 0 -15 -7 -26 -15z"/>
<path d="M4794 7455 c-18 -13 -16 -14 26 -14 42 0 44 1 26 14 -11 8 -23 15
-26 15 -3 0 -15 -7 -26 -15z"/>
<path d="M8864 7455 c-18 -13 -16 -14 25 -15 37 0 42 2 31 15 -16 19 -31 19
-56 0z"/>
<path d="M9196 7455 c-18 -14 -17 -15 23 -15 38 0 42 2 31 15 -15 19 -29 19
-54 0z"/>
<path d="M4447 7404 c-4 -4 -7 -17 -7 -30 0 -12 -9 -44 -20 -70 -11 -26 -19
-47 -18 -48 18 -10 79 -26 96 -26 17 0 61 14 80 26 2 1 -4 19 -14 40 -9 22
-19 55 -23 74 -6 32 -9 35 -46 38 -23 2 -44 0 -48 -4z m83 -64 l0 -50 -40 0
-40 0 0 50 0 50 40 0 40 0 0 -50z"/>
<path d="M4777 7403 c-4 -3 -7 -18 -7 -32 0 -14 -9 -46 -20 -70 -11 -24 -19
-45 -18 -45 18 -9 79 -26 93 -26 31 0 86 23 82 35 -7 16 -40 119 -43 133 -4
13 -75 17 -87 5z m83 -64 l0 -50 -37 3 c-38 3 -38 3 -41 51 l-3 47 40 0 41 0
0 -51z"/>
<path d="M8847 7404 c-4 -4 -7 -19 -7 -33 0 -14 -9 -46 -20 -70 -24 -53 -24
-51 -1 -51 11 0 23 -4 26 -10 10 -17 93 -7 133 16 2 1 -4 19 -14 40 -9 22 -19
55 -23 74 -6 32 -9 35 -46 38 -23 2 -44 0 -48 -4z m83 -65 l0 -50 -37 3 c-38
3 -38 3 -41 51 l-3 47 40 0 41 0 0 -51z"/>
<path d="M9177 7403 c-4 -3 -7 -18 -7 -32 0 -14 -9 -46 -20 -70 -11 -24 -19
-45 -18 -46 2 -1 22 -7 45 -14 34 -11 49 -11 88 0 33 10 45 18 42 29 -3 8 -13
38 -22 65 -10 28 -19 56 -21 63 -4 13 -75 17 -87 5z m83 -64 l0 -50 -37 3
c-38 3 -38 3 -41 51 l-3 47 40 0 41 0 0 -51z"/>
<path d="M4785 7120 c28 -5 88 -9 134 -9 78 -1 88 -3 115 -28 30 -26 30 -26
-2 7 l-32 35 -133 2 c-98 1 -119 -1 -82 -7z"/>
<path d="M8656 7062 l-49 -57 54 52 54 52 95 4 95 3 -100 2 -100 2 -49 -58z"/>
<path d="M71 6927 c-97 -410 -50 -794 129 -1057 72 -106 222 -242 249 -226 6
4 -15 44 -49 94 -118 176 -163 333 -205 716 -9 81 -15 150 -13 152 2 2 19 -90
37 -204 38 -236 75 -391 120 -507 31 -80 123 -235 139 -235 34 0 66 194 66
405 1 197 -20 315 -82 470 -66 165 -219 355 -339 422 l-40 22 -12 -52z"/>
<path d="M13552 6959 c-23 -12 -60 -42 -82 -67 -22 -25 -42 -43 -43 -41 -2 2
-8 20 -13 39 -18 65 -83 46 -104 -29 -5 -20 -15 -94 -21 -166 -6 -71 -15 -134
-19 -138 -4 -5 -17 8 -28 27 -26 43 -37 45 -55 9 -24 -47 -27 -100 -11 -200
14 -94 17 -161 7 -135 -2 6 -8 12 -13 12 -13 0 -63 -315 -53 -333 7 -12 20 9
138 228 59 110 112 205 117 210 5 6 -45 -100 -112 -234 -66 -134 -120 -251
-118 -260 6 -29 45 -25 64 8 9 16 28 34 41 40 15 7 23 19 23 36 0 31 10 32 39
1 28 -30 65 -40 91 -26 24 13 26 47 6 95 -17 40 -14 43 21 15 33 -26 46 -25
78 3 31 26 36 86 12 134 -16 29 -15 31 11 55 15 14 41 35 59 47 77 53 101 164
47 215 l-26 24 31 90 c51 149 52 291 0 343 -24 24 -34 24 -87 -2z"/>
<path d="M10084 6794 c-18 -14 -18 -15 4 -4 12 6 22 13 22 15 0 8 -5 6 -26
-11z"/>
<path d="M6365 6740 c-4 -6 8 -10 30 -10 22 0 34 4 30 10 -3 6 -17 10 -30 10
-13 0 -27 -4 -30 -10z"/>
<path d="M7295 6740 c-4 -6 7 -10 25 -10 18 0 29 4 25 10 -3 6 -15 10 -25 10
-10 0 -22 -4 -25 -10z"/>
<path d="M3800 6686 c0 -3 9 -10 20 -16 11 -6 20 -8 20 -6 0 3 -9 10 -20 16
-11 6 -20 8 -20 6z"/>
<path d="M12701 6649 c-27 -29 -33 -91 -18 -191 14 -91 10 -108 -25 -108 -58
0 -39 -127 33 -219 26 -32 24 -43 -11 -63 -26 -15 -30 -23 -30 -58 0 -51 23
-87 61 -95 l29 -7 -30 -28 c-27 -25 -29 -31 -19 -59 13 -36 22 -43 67 -50 l33
-6 5 -90 c5 -88 14 -115 39 -115 20 0 30 110 30 332 0 108 2 194 5 192 2 -3 7
-116 10 -252 l6 -247 27 59 c30 63 77 215 77 248 0 14 -5 18 -16 14 -12 -5
-11 2 7 31 65 105 99 186 99 233 0 64 -18 80 -60 50 -35 -25 -36 -24 -15 83
28 149 15 246 -37 263 -20 6 -37 -6 -52 -40 -3 -7 -10 -4 -18 8 -90 130 -150
165 -197 115z"/>
<path d="M3850 6656 c0 -3 9 -10 20 -16 11 -6 20 -8 20 -6 0 3 -9 10 -20 16
-11 6 -20 8 -20 6z"/>
<path d="M3900 6626 c0 -3 9 -10 20 -16 11 -6 20 -8 20 -6 0 3 -9 10 -20 16
-11 6 -20 8 -20 6z"/>
<path d="M4568 6573 c84 -2 219 -2 300 0 81 1 12 3 -153 3 -165 0 -231 -2
-147 -3z"/>
<path d="M8687 6573 c-3 -5 86 -7 196 -5 376 4 413 8 110 10 -166 1 -304 -1
-306 -5z"/>
<path d="M4496 6521 c5 -5 51 -38 101 -75 l93 -66 70 0 70 0 0 -49 c0 -47 2
-51 49 -85 27 -20 51 -36 55 -36 3 0 6 51 6 114 0 113 7 139 29 112 8 -9 11
-63 9 -166 l-3 -152 -47 36 c-26 20 -49 36 -52 36 -3 0 -6 -11 -6 -24 0 -20
22 -40 117 -105 l117 -81 128 0 128 0 0 150 0 150 -79 0 c-75 0 -80 1 -83 23
-4 24 37 87 57 87 7 0 15 -9 18 -20 3 -11 10 -20 17 -20 7 0 14 9 17 20 8 29
26 25 52 -11 19 -25 21 -33 10 -40 -10 -6 -11 -9 -1 -9 9 0 12 -40 12 -165 l0
-165 120 0 120 0 0 150 0 150 -80 0 c-46 0 -81 4 -81 10 -1 6 -2 16 -3 23 -2
17 44 77 59 77 7 0 15 -9 18 -20 3 -11 10 -20 17 -20 7 0 14 9 17 20 8 29 28
25 54 -11 18 -26 19 -33 8 -40 -10 -6 -10 -9 -1 -9 9 0 12 -40 12 -165 l0
-165 120 0 120 0 0 150 0 150 -80 0 c-79 0 -80 0 -80 25 0 29 37 85 56 85 6 0
14 -9 17 -20 3 -11 10 -20 17 -20 7 0 14 9 17 20 8 29 28 25 54 -11 18 -26 19
-33 8 -40 -10 -6 -10 -9 -1 -9 9 0 12 -40 12 -165 l0 -165 120 0 120 0 0 150
0 150 -80 0 -80 0 0 28 c0 18 10 38 28 55 34 32 38 33 45 7 3 -11 10 -20 17
-20 7 0 14 9 17 20 8 29 28 25 57 -12 23 -30 24 -34 8 -40 -13 -5 -14 -7 -2
-7 13 -1 15 -25 12 -166 l-3 -165 71 0 c40 0 70 4 70 10 0 6 31 10 74 10 41 0
78 -4 81 -10 3 -6 50 -10 106 -10 l99 0 0 150 0 150 -79 0 c-71 0 -80 2 -86
20 -5 14 2 32 20 55 29 39 50 45 58 15 3 -11 10 -20 17 -20 7 0 14 9 17 20 7
27 14 25 48 -10 25 -26 27 -32 15 -40 -10 -7 -11 -10 -2 -10 9 0 12 -40 12
-165 l0 -165 181 0 181 0 -3 180 c-3 177 -3 180 21 205 28 30 36 31 43 5 3
-11 10 -20 17 -20 7 0 14 9 17 20 8 30 27 24 58 -15 43 -57 33 -69 -58 -73
l-77 -3 0 -149 0 -150 100 0 c60 0 100 4 100 10 0 6 31 10 74 10 41 0 78 -4
81 -10 3 -5 35 -10 71 -10 l64 0 0 176 c0 162 2 178 21 205 24 34 44 37 52 9
3 -11 10 -20 17 -20 7 0 14 9 17 20 3 11 8 20 12 20 12 0 59 -54 61 -70 5 -38
1 -40 -80 -40 l-80 0 0 -150 0 -150 120 0 120 0 0 176 c0 162 2 178 21 205 24
34 44 37 52 9 3 -11 10 -20 17 -20 7 0 14 9 17 20 3 11 8 20 12 20 12 0 59
-54 61 -70 5 -38 1 -40 -80 -40 l-80 0 0 -150 0 -150 120 0 120 0 0 175 c0
165 1 178 22 205 25 35 44 38 51 10 3 -11 10 -20 17 -20 7 0 14 9 17 20 3 11
11 20 18 20 15 0 61 -60 59 -77 -1 -7 -2 -17 -3 -23 0 -6 -35 -10 -81 -10
l-80 0 0 -150 0 -150 120 0 120 0 0 177 0 177 27 28 c32 33 39 35 46 8 3 -11
10 -20 17 -20 7 0 14 9 17 20 8 30 27 24 57 -15 18 -24 25 -42 21 -55 -6 -18
-15 -20 -79 -20 l-73 0 -7 -46 c-3 -26 -6 -93 -6 -150 l0 -104 128 0 128 0
105 71 c126 85 132 90 127 119 -3 21 -5 21 -50 -14 -26 -20 -49 -36 -52 -36
-3 0 -6 69 -6 154 0 120 3 156 14 165 23 20 31 -5 36 -121 l5 -108 52 37 c52
36 53 38 53 85 l0 49 64 -2 64 -2 102 74 102 74 -262 3 -262 2 -55 -50 -54
-50 -582 -2 -581 -3 -6 -30 c-8 -38 -28 -75 -40 -75 -5 0 -17 14 -26 32 l-16
32 -27 -33 c-25 -30 -28 -31 -41 -16 -7 9 -16 33 -19 53 l-6 37 -387 3 -388 2
-5 -27 c-18 -87 -35 -102 -62 -54 -10 17 -20 31 -23 31 -3 0 -13 -14 -23 -31
-17 -31 -18 -31 -37 -14 -11 10 -23 36 -26 57 l-7 38 -579 0 -580 0 -58 50
-58 50 -263 0 c-150 0 -259 -4 -253 -9z m314 -21 c22 -22 26 -60 10 -91 -9
-15 -22 -19 -64 -19 -51 0 -55 2 -65 30 l-10 30 65 0 64 0 -16 25 c-9 14 -30
29 -48 34 l-31 9 38 1 c25 1 44 -6 57 -19z m4153 9 c-18 -5 -37 -18 -43 -29
-11 -21 -40 -28 -40 -10 0 24 41 50 78 49 l37 -1 -32 -9z m67 -64 c0 -2 -5
-16 -12 -30 -10 -22 -17 -25 -65 -25 -48 0 -54 3 -63 26 -6 14 -10 27 -10 30
0 2 34 4 75 4 41 0 75 -2 75 -5z m-3947 -30 c-19 -26 -53 -34 -53 -12 0 20 22
37 47 37 24 0 24 0 6 -25z m3595 -2 c3 -18 -2 -23 -17 -23 -12 0 -21 5 -21 11
0 7 -8 18 -17 26 -16 12 -14 13 17 11 28 -2 36 -8 38 -25z m-3603 -83 c4 -12
2 -27 -4 -34 -6 -7 -14 -51 -17 -99 -4 -48 -11 -84 -15 -81 -10 6 -12 217 -2
227 13 13 32 7 38 -13z m1925 10 c-8 -5 -73 -10 -145 -10 -71 0 -137 5 -145
10 -10 6 38 10 145 10 107 0 155 -4 145 -10z m1678 -113 c3 -135 -13 -159 -20
-32 -3 47 -11 92 -18 100 -8 10 -9 19 0 35 24 45 35 16 38 -103z m-3338 -87
l0 -110 -50 0 -50 0 0 110 0 110 50 0 50 0 0 -110z m265 0 l0 -105 -52 -3 -53
-3 0 111 0 111 53 -3 52 -3 0 -105z m260 0 l0 -105 -52 -3 -53 -3 0 111 0 111
53 -3 52 -3 0 -105z m263 -2 l3 -108 -56 0 -55 0 0 103 c0 57 3 107 7 111 4 4
28 6 53 4 l45 -3 3 -107z m512 1 l0 -110 -52 3 -53 3 -3 94 c-1 52 -1 100 2
108 4 8 23 13 56 13 l50 0 0 -111z m535 1 l0 -105 -52 -3 -53 -3 0 111 0 111
53 -3 52 -3 0 -105z m513 -2 l3 -108 -56 0 -55 0 0 103 c0 57 3 107 7 111 4 4
28 6 53 4 l45 -3 3 -107z m262 2 l0 -110 -50 0 -50 0 0 110 0 110 50 0 50 0 0
-110z m260 0 l0 -110 -50 0 -50 0 0 110 0 110 50 0 50 0 0 -110z m260 0 l0
-110 -50 0 -50 0 0 110 0 110 50 0 50 0 0 -110z m-2050 -100 c0 -5 -22 -10
-50 -10 -27 0 -50 5 -50 10 0 6 23 10 50 10 28 0 50 -4 50 -10z m970 0 c0 -5
-25 -10 -56 -10 -34 0 -53 4 -49 10 3 6 28 10 56 10 27 0 49 -4 49 -10z"/>
<path d="M5425 6464 c47 -7 835 -9 835 -2 0 4 -192 7 -427 7 -236 -1 -419 -3
-408 -5z"/>
<path d="M6495 6460 c-4 -7 118 -10 360 -10 242 0 364 3 360 10 -4 6 -135 10
-360 10 -225 0 -356 -4 -360 -10z"/>
<path d="M7456 6462 c-4 -7 782 -5 829 2 11 2 -170 4 -402 5 -232 0 -424 -3
-427 -7z"/>
<path d="M6338 6423 c23 -2 59 -2 80 0 20 2 1 4 -43 4 -44 0 -61 -2 -37 -4z"/>
<path d="M7298 6423 c23 -2 59 -2 80 0 20 2 1 4 -43 4 -44 0 -61 -2 -37 -4z"/>
<path d="M17177 6404 c-31 -9 -65 -31 -92 -59 -136 -136 -68 -366 119 -405
172 -36 321 114 286 287 -29 138 -176 221 -313 177z"/>
<path d="M22825 6411 c-52 -13 -92 -39 -129 -83 -78 -91 -76 -219 4 -311 145
-164 420 -61 420 158 0 87 -54 176 -130 215 -43 22 -122 32 -165 21z"/>
<path d="M16545 6266 l-190 -73 -3 -302 c-1 -165 -4 -301 -6 -301 -2 0 -30 18
-63 39 -175 117 -416 131 -613 35 -108 -53 -221 -168 -277 -284 -66 -135 -78
-190 -78 -375 0 -188 11 -242 81 -385 128 -260 399 -394 677 -335 82 17 177
59 234 102 l43 33 0 -55 0 -55 200 0 200 0 0 1015 c0 558 -3 1015 -7 1015 -5
-1 -93 -34 -198 -74z m-369 -939 c60 -30 117 -91 147 -155 18 -40 22 -66 22
-167 0 -109 -2 -125 -26 -175 -36 -77 -80 -124 -147 -157 -46 -23 -70 -28
-132 -28 -130 0 -230 66 -287 189 -25 55 -28 71 -28 171 0 93 4 118 23 159 43
94 100 149 189 182 60 22 176 13 239 -19z"/>
<path d="M793 6244 c-91 -145 -141 -268 -173 -425 -50 -243 -10 -544 105 -797
34 -73 63 -98 95 -82 41 22 142 261 176 420 25 115 25 342 0 460 -25 120 -79
280 -129 384 l-43 90 -31 -50z m77 -729 c16 -190 -1 -372 -46 -507 -30 -90
-31 -57 -2 60 41 167 46 331 19 614 -12 120 -21 230 -20 245 2 40 36 -247 49
-412z"/>
<path d="M18390 6065 l0 -195 310 0 310 0 0 -790 0 -790 215 0 215 0 0 790 0
790 310 0 310 0 0 195 0 195 -835 0 -835 0 0 -195z"/>
<path d="M6238 5423 c2 -213 6 -390 8 -393 3 -3 10 3 15 13 7 11 22 17 44 17
l35 0 0 318 c0 174 -3 327 -6 340 -5 15 -12 21 -22 17 -17 -6 -42 12 -42 31 0
10 13 14 40 14 29 0 40 4 40 15 0 12 -13 15 -57 15 l-58 0 3 -387z"/>
<path d="M6653 5803 c115 -2 299 -2 410 0 111 1 18 2 -208 2 -225 0 -316 -1
-202 -2z"/>
<path d="M7370 5795 c0 -11 11 -15 40 -15 22 0 40 -4 40 -9 0 -13 -31 -36 -49
-36 -14 0 -16 -35 -19 -337 l-2 -338 35 0 c24 0 35 -5 35 -15 0 -8 5 -15 10
-15 6 0 10 -7 10 -15 0 -12 -19 -15 -115 -15 -108 0 -115 1 -115 20 0 13 7 20
20 20 11 0 20 5 20 10 0 6 9 10 20 10 20 0 20 7 20 341 0 333 0 341 -19 336
-12 -3 -27 3 -37 14 -17 18 -16 19 24 19 29 0 42 4 42 14 0 10 -9 12 -42 5
-24 -4 -219 -8 -435 -9 -379 0 -392 -1 -398 -19 -3 -12 -17 -21 -33 -23 l-27
-3 -3 -337 -2 -338 25 0 c14 0 25 -4 25 -9 0 -5 9 -11 21 -14 12 -3 19 -12 17
-19 -3 -9 -36 -14 -121 -16 l-117 -3 0 -104 c0 -63 4 -105 10 -105 6 0 10 -27
10 -60 l0 -61 118 3 117 3 5 217 c5 209 6 218 28 240 34 34 97 31 128 -6 25
-28 25 -29 21 -215 -2 -102 -6 -197 -8 -211 -4 -24 -2 -25 54 -28 55 -3 57 -2
57 22 0 14 -4 28 -10 31 -15 9 -13 347 2 380 13 29 55 55 87 55 12 0 35 -13
53 -29 l33 -29 3 -183 c2 -119 0 -185 -7 -192 -6 -6 -11 -22 -11 -34 0 -23 3
-24 58 -21 55 3 57 4 53 28 -2 14 -6 109 -8 211 -4 186 -4 187 21 215 31 37
94 40 128 6 22 -22 23 -31 28 -240 l5 -217 118 -3 117 -3 0 61 c0 47 3 60 15
60 13 0 15 62 15 500 0 275 0 503 0 508 0 4 -25 8 -55 10 -44 2 -55 0 -55 -13z
m-704 -44 c27 -12 46 -30 55 -50 8 -17 16 -31 19 -31 3 0 12 13 22 29 22 39
71 64 108 56 41 -9 89 -57 97 -96 l6 -34 11 45 c28 116 205 121 233 7 7 -29 1
-467 -6 -442 -1 6 -6 78 -10 161 -8 163 -17 194 -67 216 -36 16 -84 -12 -115
-65 -20 -36 -24 -61 -29 -177 -4 -74 -7 -116 -8 -92 -1 23 -6 42 -11 42 -6 0
-11 -19 -13 -42 -4 -54 -22 -52 -26 2 l-3 40 -75 0 -74 0 0 -46 c0 -59 -24
-55 -28 4 -4 55 -20 54 -25 0 -2 -24 -4 11 -5 77 -2 144 -13 188 -57 232 -52
52 -103 41 -136 -30 -15 -34 -19 -68 -20 -182 -1 -86 -4 -130 -9 -115 -4 14
-8 110 -9 213 -1 221 6 247 73 278 50 23 52 23 102 0z"/>
<path d="M6974 5505 c0 -66 1 -92 3 -57 2 34 2 88 0 120 -2 31 -3 3 -3 -63z"/>
<path d="M6751 5438 c-1 -81 2 -98 14 -98 20 0 20 122 0 165 -12 28 -13 23
-14 -67z"/>
<path d="M6942 5495 c-17 -52 -13 -168 6 -156 9 5 12 33 10 102 -3 93 -3 94
-16 54z"/>
<path d="M7507 5803 c-4 -3 -7 -233 -7 -510 0 -440 2 -503 15 -503 12 0 15
-13 15 -60 l0 -60 540 0 540 0 0 558 c0 421 -3 561 -12 570 -9 9 -145 12 -548
12 -295 0 -540 -3 -543 -7z m262 -109 c2 -2 -13 -4 -34 -4 -21 0 -35 3 -31 7
3 4 -3 12 -16 19 -23 13 -72 -1 -62 -17 3 -5 -12 -9 -33 -9 l-38 1 55 28 55
29 50 -25 c27 -14 52 -27 54 -29z m223 26 l63 -30 -43 0 c-24 0 -41 4 -38 9
10 16 -39 30 -62 17 -13 -7 -19 -15 -16 -19 4 -4 -13 -7 -37 -7 l-44 1 55 29
c30 16 56 29 57 30 0 0 30 -13 65 -30z m270 0 l63 -30 -43 0 c-25 0 -41 4 -37
10 3 5 -6 12 -20 16 -31 8 -78 -3 -70 -16 4 -6 -10 -10 -32 -10 l-38 0 50 29
c28 16 53 29 57 30 3 1 35 -12 70 -29z m260 0 l63 -30 -44 0 c-24 0 -41 3 -37
7 3 4 -3 12 -16 19 -26 14 -90 -2 -66 -17 8 -6 -3 -9 -32 -8 l-45 0 55 29 c30
16 56 29 57 30 0 0 30 -13 65 -30z m-782 -110 c0 -5 -4 -10 -10 -10 -6 0 -10
-49 -10 -126 l0 -125 -52 3 -53 3 -3 123 c-1 70 -7 122 -12 122 -6 0 -10 5
-10 10 0 6 32 10 75 10 43 0 75 -4 75 -10z m270 0 c0 -5 -4 -10 -10 -10 -5 0
-11 -52 -12 -122 l-3 -123 -52 -3 -53 -3 0 125 c0 107 -2 126 -16 126 -8 0
-12 5 -9 10 3 6 40 10 81 10 43 0 74 -4 74 -10z m264 1 c3 -5 -1 -11 -9 -15
-12 -4 -15 -28 -15 -126 l0 -120 -50 0 -50 0 0 120 c0 98 -3 122 -15 126 -8 4
-15 10 -15 15 0 12 147 12 154 0z m266 -1 c0 -5 -4 -10 -10 -10 -5 0 -11 -52
-12 -122 l-3 -123 -52 -3 -53 -3 0 125 c0 107 -2 126 -16 126 -8 0 -12 5 -9
10 3 6 40 10 81 10 43 0 74 -4 74 -10z m-780 -290 c0 -5 -6 -10 -13 -10 -7 0
-23 -13 -35 -30 -30 -40 -57 -38 -103 10 l-39 40 95 0 c57 0 95 -4 95 -10z
m230 -30 c-50 -48 -72 -50 -102 -10 -12 17 -28 30 -35 30 -7 0 -13 5 -13 10 0
6 39 10 96 10 l96 0 -42 -40z m300 30 c0 -5 -6 -10 -13 -10 -7 0 -23 -13 -35
-30 -30 -40 -52 -38 -102 10 l-42 40 96 0 c57 0 96 -4 96 -10z m231 -30 c-46
-48 -72 -50 -101 -10 -12 17 -28 30 -36 30 -8 0 -14 5 -14 10 0 6 38 10 95 10
l95 0 -39 -40z m-741 -145 c0 -3 -16 -5 -35 -5 -24 0 -35 5 -35 15 0 8 -3 15
-7 15 -5 0 -18 3 -29 6 -15 4 -28 -1 -42 -16 -14 -16 -29 -21 -53 -18 l-34 3
60 31 60 32 57 -29 c32 -16 58 -31 58 -34z m205 38 c30 -15 55 -31 55 -35 0
-4 -16 -8 -35 -8 -24 0 -35 5 -35 14 0 18 -33 30 -60 21 -11 -3 -20 -13 -20
-21 0 -9 -11 -14 -35 -14 -19 0 -35 2 -35 5 0 4 100 65 107 65 2 0 27 -12 58
-27z m298 -41 c-22 -2 -38 3 -52 17 -12 12 -26 21 -32 21 -19 0 -50 -21 -44
-31 4 -5 -11 -9 -34 -9 -23 0 -41 2 -41 5 0 3 26 18 57 34 l58 29 60 -32 c59
-30 59 -31 28 -34z m287 6 c0 -4 -16 -8 -35 -8 -23 0 -35 5 -35 14 0 8 -7 17
-16 20 -23 9 -64 -4 -64 -20 0 -9 -12 -14 -35 -14 -19 0 -35 2 -35 5 0 3 26
18 57 34 l57 29 53 -26 c29 -15 53 -30 53 -34z m-830 -83 c0 -8 -4 -15 -10
-15 -6 0 -10 -47 -10 -120 l0 -120 -55 0 -55 0 0 120 c0 73 -4 120 -10 120 -5
0 -10 7 -10 15 0 12 15 15 75 15 60 0 75 -3 75 -15z m270 0 c0 -8 -4 -15 -10
-15 -6 0 -10 -47 -10 -120 l0 -120 -55 0 -55 0 0 119 c0 99 -3 120 -16 125
-34 13 1 26 72 26 59 0 74 -3 74 -15z m265 5 c3 -6 -1 -13 -9 -16 -13 -5 -16
-26 -16 -125 l0 -119 -50 0 -50 0 0 120 c0 100 -2 120 -15 120 -8 0 -15 7 -15
15 0 12 15 15 74 15 41 0 78 -5 81 -10z m265 -5 c0 -8 -4 -15 -10 -15 -6 0
-10 -47 -10 -120 l0 -120 -55 0 -55 0 0 119 c0 99 -3 120 -16 125 -34 13 1 26
72 26 59 0 74 -3 74 -15z m-780 -284 c0 -5 -9 -13 -20 -16 -11 -3 -20 -10 -20
-15 0 -17 -32 -40 -55 -40 -15 0 -32 11 -45 30 -12 17 -28 30 -36 30 -8 0 -14
5 -14 10 0 6 38 10 95 10 52 0 95 -4 95 -9z m270 -1 c0 -5 -6 -10 -14 -10 -8
0 -24 -13 -36 -30 -30 -41 -62 -39 -106 6 -19 20 -34 38 -34 40 0 2 43 4 95 4
57 0 95 -4 95 -10z m260 1 c0 -5 -9 -13 -20 -16 -11 -3 -20 -10 -20 -15 0 -17
-32 -40 -55 -40 -15 0 -32 11 -45 30 -12 17 -28 30 -36 30 -8 0 -14 5 -14 10
0 6 38 10 95 10 52 0 95 -4 95 -9z m270 -1 c0 -5 -6 -10 -14 -10 -8 0 -24 -13
-36 -30 -14 -19 -30 -30 -45 -30 -15 0 -33 11 -47 30 -12 17 -28 30 -35 30 -7
0 -13 5 -13 10 0 6 38 10 95 10 57 0 95 -4 95 -10z"/>
<path d="M5107 5598 c-4 -112 -7 -366 -7 -565 l0 -363 540 0 540 0 0 60 c0 53
2 60 20 60 20 0 20 7 20 459 0 252 -3 479 -6 505 l-7 46 -547 0 -547 0 -6
-202z m198 125 c30 -15 55 -30 55 -33 0 -3 -16 -4 -35 -2 -19 2 -33 8 -30 12
7 11 -43 22 -66 15 -10 -4 -19 -11 -19 -16 0 -5 -17 -9 -37 -9 l-38 1 55 29
c30 16 56 29 57 30 2 0 27 -12 58 -27z m314 -29 c2 -2 -12 -4 -33 -4 -21 0
-35 4 -31 10 8 13 -38 24 -64 15 -12 -3 -19 -11 -16 -16 4 -5 -13 -9 -37 -8
l-43 1 60 27 60 28 50 -25 c28 -13 52 -26 54 -28z m221 26 l55 -29 -38 -1
c-21 0 -36 4 -33 9 8 12 -48 24 -74 16 -11 -4 -18 -11 -15 -16 4 -5 -11 -9
-32 -9 l-38 1 55 29 c30 16 57 29 60 29 3 0 30 -13 60 -29z m261 0 l54 -30
-38 0 c-21 0 -36 4 -32 9 3 5 -4 12 -15 16 -26 8 -82 -4 -74 -16 3 -5 -12 -9
-33 -8 l-38 1 60 28 c33 16 60 29 61 29 0 1 25 -12 55 -29z m-771 -109 c0 -5
-7 -11 -15 -15 -12 -4 -15 -28 -15 -126 l0 -120 -50 0 -50 0 0 120 c0 98 -3
122 -15 126 -36 14 -9 24 65 24 44 0 80 -4 80 -9z m260 -1 c0 -5 -4 -10 -10
-10 -6 0 -10 -48 -10 -125 l0 -125 -55 0 -55 0 0 125 c0 77 -4 125 -10 125 -5
0 -10 5 -10 10 0 6 32 10 75 10 43 0 75 -4 75 -10z m270 1 c0 -5 -7 -11 -15
-15 -12 -4 -15 -28 -15 -126 l0 -120 -50 0 -50 0 0 120 c0 98 -3 122 -15 126
-36 14 -9 24 65 24 44 0 80 -4 80 -9z m260 -1 c0 -5 -4 -10 -10 -10 -6 0 -10
-48 -10 -125 l0 -125 -55 0 -55 0 0 125 c0 77 -4 125 -10 125 -5 0 -10 5 -10
10 0 6 32 10 75 10 43 0 75 -4 75 -10z m-780 -285 c0 -13 -76 -75 -93 -75 -17
0 -87 62 -87 76 0 2 41 4 90 4 50 0 90 -2 90 -5z m270 -5 c0 -5 -6 -10 -14
-10 -8 0 -24 -13 -36 -30 -13 -19 -30 -30 -45 -30 -15 0 -32 11 -45 30 -12 17
-28 30 -36 30 -8 0 -14 5 -14 10 0 6 38 10 95 10 57 0 95 -4 95 -10z m260 5
c0 -12 -76 -75 -91 -75 -18 0 -59 36 -59 52 0 4 -7 8 -15 8 -8 0 -15 5 -15 10
0 6 37 10 90 10 50 0 90 -2 90 -5z m270 -5 c0 -5 -6 -10 -13 -10 -7 0 -23 -13
-35 -30 -14 -19 -32 -30 -47 -30 -15 0 -31 11 -45 30 -12 17 -28 30 -36 30 -8
0 -14 5 -14 10 0 6 38 10 95 10 57 0 95 -4 95 -10z m-835 -137 c30 -15 55 -31
55 -35 0 -4 -16 -8 -35 -8 -23 0 -35 5 -35 14 0 8 -7 17 -16 20 -23 9 -64 -4
-64 -20 0 -10 -13 -14 -42 -14 l-43 0 60 34 c33 19 61 35 62 35 2 1 27 -11 58
-26z m315 -36 c0 -4 -15 -7 -32 -5 -18 2 -32 8 -31 14 3 15 -42 27 -68 19 -10
-4 -19 -13 -19 -21 0 -9 -11 -14 -35 -14 -19 0 -35 2 -35 5 0 3 26 18 57 34
l57 29 53 -26 c29 -15 53 -30 53 -35z m255 9 c19 -15 18 -15 -17 -16 -27 0
-38 4 -38 14 0 18 -33 30 -60 21 -11 -3 -20 -13 -20 -21 0 -10 -12 -14 -40
-14 -22 0 -40 2 -40 5 0 3 28 19 63 34 61 28 62 28 97 10 19 -9 44 -24 55 -33z
m275 -8 c0 -9 -32 -11 -54 -2 -9 3 -14 10 -11 14 7 11 -43 22 -66 15 -10 -4
-19 -13 -19 -21 0 -9 -11 -14 -35 -14 -19 0 -35 2 -35 5 0 3 26 18 57 34 l57
29 53 -26 c29 -15 53 -30 53 -34z m-825 -78 c3 -6 -1 -13 -9 -16 -13 -5 -16
-26 -16 -125 l0 -119 -50 0 -50 0 0 119 c0 99 -3 120 -16 125 -33 13 0 26 66
26 38 0 72 -5 75 -10z m265 -10 c0 -5 -4 -10 -10 -10 -6 0 -10 -47 -10 -120
l0 -120 -55 0 -55 0 0 120 c0 73 -4 120 -10 120 -5 0 -10 5 -10 10 0 6 32 10
75 10 43 0 75 -4 75 -10z m270 0 c0 -5 -7 -10 -15 -10 -12 0 -15 -20 -15 -120
l0 -120 -50 0 -50 0 0 120 c0 100 -2 120 -15 120 -8 0 -15 5 -15 10 0 6 33 10
80 10 47 0 80 -4 80 -10z m260 0 c0 -5 -4 -10 -10 -10 -6 0 -10 -47 -10 -120
l0 -120 -55 0 -55 0 0 120 c0 73 -4 120 -10 120 -5 0 -10 5 -10 10 0 6 32 10
75 10 43 0 75 -4 75 -10z m-780 -274 c0 -2 -15 -19 -32 -38 -50 -52 -65 -54
-102 -13 -18 19 -38 35 -45 35 -7 0 -9 5 -6 10 6 9 185 15 185 6z m270 -6 c0
-5 -4 -10 -8 -10 -5 0 -25 -16 -45 -35 -31 -30 -40 -34 -57 -25 -11 6 -27 22
-36 35 -9 14 -23 25 -30 25 -8 0 -14 5 -14 10 0 6 38 10 95 10 57 0 95 -4 95
-10z m260 6 c0 -9 -67 -73 -82 -79 -13 -4 -30 6 -58 34 -22 22 -40 42 -40 45
0 2 41 4 90 4 50 0 90 -2 90 -4z m270 -5 c0 -5 -8 -12 -18 -16 -11 -3 -24 -16
-30 -29 -18 -40 -51 -40 -88 -1 -18 19 -38 35 -44 35 -6 0 -8 5 -5 10 8 13
185 13 185 1z"/>
<path d="M6380 5788 c0 -4 16 -8 35 -8 19 0 35 2 35 4 0 2 -16 6 -35 8 -19 2
-35 0 -35 -4z"/>
<path d="M20465 5700 c-296 -47 -515 -243 -592 -530 -26 -100 -24 -292 5 -395
43 -151 132 -286 245 -371 248 -188 631 -205 894 -39 403 255 444 864 80 1172
-69 58 -191 120 -284 144 -91 23 -261 32 -348 19z m231 -375 c157 -46 256
-201 241 -377 -19 -226 -223 -374 -431 -314 -151 44 -235 156 -244 323 -12
222 124 380 329 382 30 1 78 -6 105 -14z"/>
<path d="M22247 5699 c-95 -22 -202 -103 -246 -185 l-20 -39 -1 93 0 92 -195
0 -195 0 0 -685 0 -685 195 0 195 0 0 393 0 392 24 52 c53 113 163 184 289
187 40 0 90 -1 112 -4 l40 -5 3 196 2 197 -22 6 c-32 8 -136 6 -181 -5z"/>
<path d="M24044 5695 c-73 -16 -153 -54 -211 -102 l-43 -34 0 50 0 51 -195 0
-195 0 0 -685 0 -685 195 0 195 0 0 458 0 458 48 46 c138 136 335 124 415 -25
22 -41 22 -49 25 -489 l3 -448 194 0 195 0 0 503 c0 544 -1 555 -57 664 -94
186 -338 288 -569 238z"/>
<path d="M25510 5699 c-299 -46 -520 -242 -597 -529 -26 -99 -24 -292 5 -393
89 -313 336 -505 672 -524 296 -16 559 115 698 349 77 130 113 312 93 470 -23
180 -81 300 -205 424 -135 134 -294 200 -501 209 -55 2 -129 -1 -165 -6z m268
-389 c67 -29 153 -120 176 -187 67 -193 -7 -393 -174 -472 -73 -35 -209 -36
-282 -3 -70 31 -131 93 -164 165 -26 56 -29 72 -29 167 0 94 3 111 28 165 43
92 108 151 200 181 61 20 180 12 245 -16z"/>
<path d="M17060 4975 l0 -685 195 0 195 0 0 685 0 685 -195 0 -195 0 0 -685z"/>
<path d="M22680 4975 l0 -685 200 0 200 0 0 685 0 685 -200 0 -200 0 0 -685z"/>
<path d="M12537 5442 c-24 -27 -35 -63 -42 -143 -10 -118 -11 -121 -44 -114
-59 13 -75 -60 -46 -200 19 -88 19 -85 -7 -85 -72 -1 -87 -96 -26 -166 l30
-34 -24 0 c-34 0 -48 -18 -48 -61 0 -36 15 -58 65 -93 16 -11 17 -17 7 -29
-23 -27 -35 -198 -15 -204 20 -7 85 162 137 354 14 48 25 78 25 66 1 -30 -62
-273 -89 -346 -12 -32 -20 -61 -17 -64 9 -9 54 45 123 147 65 96 80 138 47
126 -10 -4 21 30 69 74 89 82 124 140 116 191 -3 21 -8 24 -40 23 -44 -1 -45
3 -18 56 34 66 69 169 75 218 9 75 -34 134 -73 99 -26 -24 -29 -22 -37 21 -24
131 -116 222 -168 164z m30 -609 c-3 -10 -5 -4 -5 12 0 17 2 24 5 18 2 -7 2
-21 0 -30z m-10 -65 c-3 -7 -5 -2 -5 12 0 14 2 19 5 13 2 -7 2 -19 0 -25z"/>
<path d="M13233 5406 c-17 -18 -43 -69 -58 -112 -60 -167 -67 -184 -75 -184
-5 0 -12 16 -16 35 -3 19 -12 39 -19 45 -38 32 -82 -47 -96 -172 -16 -150 -22
-186 -27 -160 -2 13 -9 22 -15 20 -15 -4 -126 -230 -134 -272 l-6 -30 44 34
c24 19 105 89 179 154 74 66 144 126 154 135 28 23 -270 -268 -321 -313 -72
-64 -49 -117 32 -76 22 11 47 20 56 20 9 0 20 10 26 22 9 21 11 20 34 -21 25
-46 67 -75 93 -65 21 8 30 46 23 91 l-6 36 33 -36 c36 -40 69 -47 102 -23 16
12 19 27 19 85 0 77 -3 74 70 86 54 9 114 44 131 77 19 37 18 94 -3 129 -17
28 -16 29 15 71 44 59 101 160 113 200 22 80 3 186 -36 202 -34 13 -82 5 -143
-24 -35 -17 -66 -30 -68 -30 -2 0 -4 20 -4 45 0 34 -5 47 -19 55 -32 16 -47
12 -78 -24z"/>
<path d="M254 4943 c23 -265 119 -550 239 -708 59 -77 95 -112 186 -174 119
-81 329 -152 365 -122 13 11 4 18 -57 49 -94 48 -215 167 -296 291 -55 84
-248 451 -237 451 2 0 53 -84 111 -187 59 -104 134 -227 167 -275 105 -153
320 -331 349 -288 20 30 -20 250 -76 416 -61 183 -131 300 -239 401 -130 122
-275 188 -475 217 l-44 7 7 -78z"/>
<path d="M1281 4656 c-96 -258 -108 -596 -30 -851 42 -140 176 -364 221 -373
23 -5 32 94 25 282 -7 168 -21 247 -92 494 -26 90 -45 165 -43 167 6 6 118
-359 134 -440 18 -88 24 -339 11 -440 -7 -53 -6 -58 7 -45 21 22 62 171 80
293 51 339 -19 627 -215 887 -33 44 -64 80 -69 80 -5 0 -18 -24 -29 -54z"/>
<path d="M12694 4125 c-26 -17 -62 -92 -98 -202 -15 -46 -32 -85 -37 -88 -5
-4 -14 6 -19 22 -16 45 -26 58 -47 61 -45 7 -81 -91 -84 -228 -1 -67 -16 -142
-18 -92 -2 50 -35 13 -98 -109 -36 -70 -64 -132 -62 -138 4 -12 190 105 324
204 41 30 75 54 75 52 0 -8 -161 -138 -272 -220 -65 -48 -118 -94 -118 -102 0
-8 11 -22 25 -31 22 -14 26 -14 47 0 12 9 39 16 60 16 27 0 38 4 38 15 0 28
18 15 45 -31 32 -55 85 -85 110 -64 13 11 16 25 11 69 -5 47 -4 53 6 36 30
-45 67 -75 96 -75 54 0 75 49 58 132 l-8 36 76 7 c94 9 135 33 155 91 13 38
13 44 -8 87 -25 51 -25 49 32 121 116 148 131 320 31 362 -53 22 -93 16 -206
-31 -16 -6 -18 -1 -18 37 0 69 -46 99 -96 63z"/>
<path d="M12047 4059 c-23 -13 -61 -89 -82 -164 -21 -73 -27 -80 -54 -63 -47
29 -79 -37 -80 -169 -1 -95 -5 -103 -46 -96 -29 5 -35 2 -49 -25 -21 -41 -20
-90 3 -136 l20 -38 -33 6 c-28 5 -34 3 -44 -19 -18 -39 -15 -67 14 -121 22
-42 24 -49 10 -59 -8 -6 -18 -24 -22 -41 -4 -16 -18 -50 -31 -76 -27 -51 -27
-81 -1 -86 20 -4 128 156 210 313 32 61 58 106 58 101 0 -18 -101 -215 -164
-320 -36 -60 -64 -111 -63 -113 8 -7 134 83 189 134 59 57 72 82 41 84 -10 0
23 20 72 43 58 27 102 56 122 79 56 64 55 119 -1 125 -33 4 -33 9 4 53 116
142 157 235 130 299 -12 30 -42 40 -55 20 -15 -25 -23 -4 -28 78 -7 102 -19
150 -47 180 -22 24 -45 27 -73 11z"/>
<path d="M1010 3411 c0 -33 59 -202 104 -297 112 -235 266 -389 464 -461 122
-45 294 -67 332 -43 18 11 17 13 -55 34 -120 36 -247 124 -358 249 -71 80
-260 317 -253 317 3 0 51 -53 107 -117 247 -285 358 -377 522 -437 l67 -24 0
33 c0 73 -101 300 -193 433 -146 213 -382 332 -653 332 -76 0 -84 -2 -84 -19z"/>
<path d="M1956 3307 c-4 -46 -2 -136 4 -202 31 -333 165 -612 371 -776 87 -70
104 -77 130 -53 38 34 21 334 -28 504 -74 256 -254 495 -449 598 -21 11 -22 9
-28 -71z m242 -352 c101 -152 142 -227 186 -341 34 -88 77 -269 75 -316 0 -12
-9 18 -20 67 -38 184 -117 366 -253 585 -85 136 -93 149 -79 135 6 -5 46 -64
91 -130z"/>
<path d="M6272 3215 c-98 -30 -151 -103 -152 -208 0 -69 17 -112 59 -151 l31
-29 -42 -36 c-54 -46 -78 -100 -78 -176 0 -74 24 -129 74 -173 62 -54 99 -65
216 -66 90 -1 112 2 157 23 29 13 68 40 87 61 89 99 69 251 -43 326 l-40 26
36 31 c97 85 97 239 0 324 -66 58 -204 80 -305 48z m196 -131 c36 -24 56 -78
42 -119 -9 -27 -79 -105 -94 -105 -2 0 -34 13 -69 29 -71 32 -97 64 -97 119 0
38 33 79 73 91 41 13 114 5 145 -15z m-56 -349 c72 -29 96 -48 115 -92 36 -88
-69 -167 -189 -142 -117 26 -148 165 -51 238 36 27 51 26 125 -4z"/>
<path d="M7729 3215 c-59 -19 -131 -83 -160 -142 -17 -35 -22 -64 -22 -117 0
-115 45 -195 135 -240 42 -21 66 -26 129 -26 66 0 85 4 132 29 l55 29 -5 -42
c-18 -152 -89 -216 -228 -203 -34 3 -86 15 -116 26 -30 12 -55 21 -57 21 -2 0
-2 -33 0 -72 l3 -73 70 -18 c162 -42 320 -5 390 91 61 84 91 229 82 387 -10
170 -68 284 -171 337 -53 27 -172 34 -237 13z m178 -135 c39 -23 68 -78 78
-143 7 -42 4 -51 -15 -72 -54 -57 -158 -69 -218 -26 -37 26 -66 94 -58 136 20
102 129 156 213 105z"/>
<path d="M5638 3156 l-98 -51 0 -73 0 -72 100 50 100 50 0 -335 0 -335 70 0
70 0 0 410 0 410 -72 -1 c-68 -1 -80 -5 -170 -53z"/>
<path d="M6886 3158 c-3 -29 -8 -118 -11 -198 l-6 -145 51 -38 c49 -37 51 -37
81 -22 83 44 200 20 235 -46 38 -74 8 -161 -67 -194 -35 -16 -50 -17 -112 -8
-40 5 -100 21 -134 35 l-63 26 0 -73 0 -73 68 -24 c97 -33 256 -33 325 1 170
83 209 300 77 431 -74 75 -160 94 -295 65 l-30 -7 3 84 c2 46 5 89 7 96 3 9
48 12 180 12 l175 0 0 65 0 65 -239 0 -240 0 -5 -52z"/>
<path d="M11145 3026 c-29 -29 -57 -83 -80 -156 -22 -69 -30 -78 -47 -51 -16
26 -45 27 -52 3 -10 -29 -25 -163 -26 -214 0 -27 -2 -48 -5 -48 -3 0 -16 7
-29 15 -22 14 -25 14 -40 0 -9 -9 -19 -27 -22 -40 -7 -27 0 -108 11 -144 8
-23 8 -23 -18 -7 -24 16 -26 16 -41 -6 -21 -30 -20 -77 4 -140 19 -50 19 -52
1 -64 -10 -7 -21 -27 -24 -44 -4 -17 -18 -47 -32 -68 -50 -74 -24 -115 36 -56
85 83 163 209 258 414 l11 25 -6 -25 c-20 -81 -139 -290 -264 -463 -14 -20
-13 -20 15 -13 41 10 151 76 200 120 38 34 39 36 21 51 -22 17 -22 17 64 36
30 6 67 18 82 25 39 20 80 78 81 116 2 28 -3 35 -30 47 -18 8 -33 18 -33 23 0
4 27 37 59 73 73 80 111 153 111 213 0 62 -14 85 -49 77 l-28 -6 -6 108 c-8
186 -56 264 -122 199z"/>
<path d="M11887 2888 c-18 -18 -60 -77 -91 -130 -31 -54 -61 -98 -65 -98 -5 0
-11 19 -14 41 -7 56 -21 68 -55 49 -34 -20 -69 -72 -82 -124 -28 -107 -54
-180 -58 -158 -2 12 -9 22 -15 22 -21 -1 -206 -214 -195 -225 11 -11 254 83
388 150 49 25 93 45 97 45 20 -1 -284 -154 -379 -192 -59 -23 -110 -49 -113
-57 -3 -8 1 -22 10 -30 20 -21 152 -24 159 -4 10 24 23 13 35 -28 15 -51 52
-89 84 -89 27 0 37 16 37 59 0 43 12 44 34 4 38 -67 110 -71 141 -8 9 20 15
50 13 68 l-3 32 85 0 c89 1 127 13 164 54 22 24 34 105 17 115 -25 16 -7 46
70 116 93 84 129 146 129 223 0 101 -83 128 -260 86 -12 -3 -14 5 -12 43 3 38
0 48 -17 57 -35 19 -68 12 -104 -21z"/>
<path d="M2972 2263 c23 -246 125 -504 259 -660 88 -101 210 -182 325 -216 73
-22 82 -12 60 60 -41 132 -129 275 -267 435 -46 53 -113 129 -147 170 -35 40
-5 12 68 -62 200 -205 299 -350 346 -505 26 -88 38 -92 30 -10 -17 174 -79
367 -162 507 -108 181 -314 337 -480 364 l-40 6 8 -89z"/>
<path d="M10327 2300 c-14 -12 -40 -50 -58 -85 -17 -36 -35 -65 -39 -65 -4 0
-12 11 -18 25 -28 60 -58 20 -92 -122 -22 -93 -31 -107 -48 -77 -9 16 -15 16
-86 -1 -60 -14 -82 -25 -101 -47 -35 -41 -34 -105 1 -147 l26 -31 -51 0 c-40
0 -53 -4 -65 -22 -30 -43 -17 -92 38 -140 l31 -28 -22 -17 c-11 -10 -24 -34
-28 -53 -3 -19 -13 -52 -22 -72 -19 -44 -11 -91 15 -86 9 2 35 36 57 76 74
132 141 219 174 227 17 4 31 10 31 13 1 4 19 27 42 52 l41 45 -29 -41 c-52
-72 -70 -92 -89 -95 -11 -2 -36 -26 -56 -53 -44 -58 -134 -226 -121 -226 5 0
49 29 97 64 48 36 100 68 115 71 38 8 56 30 41 48 -16 21 -4 26 37 16 85 -20
159 0 181 47 17 39 13 62 -14 80 -33 22 -32 39 6 54 17 7 53 34 79 60 57 56
78 111 64 168 -8 31 -13 37 -33 34 l-24 -2 7 98 c7 103 -4 188 -30 230 -18 27
-24 27 -57 2z"/>
<path d="M2115 2096 c-5 -3 -31 -7 -57 -11 -55 -7 -55 -5 9 -113 201 -343 487
-513 858 -511 114 0 201 16 184 34 -3 2 -50 11 -105 20 -104 15 -165 35 -267
87 -104 52 -138 76 -442 317 l-30 23 30 -17 c17 -10 86 -59 155 -109 168 -123
257 -179 348 -217 87 -36 317 -97 328 -87 23 24 -94 207 -206 319 -183 185
-359 257 -645 265 -82 2 -154 2 -160 0z"/>
<path d="M10908 1776 c-21 -8 -76 -41 -122 -75 -46 -33 -87 -61 -90 -61 -3 0
-6 20 -6 45 0 39 -3 45 -25 51 -44 11 -84 -15 -141 -92 -58 -79 -74 -94 -74
-70 0 53 -138 -38 -163 -108 -6 -16 -4 -17 15 -11 96 30 132 35 238 34 l115
-2 -112 -8 c-158 -11 -243 -37 -243 -74 0 -21 30 -26 101 -16 64 9 64 9 99
-24 58 -55 107 -72 97 -35 -4 18 0 16 32 -10 72 -56 178 -103 236 -104 69 -1
93 19 97 82 l3 45 60 17 c161 45 252 136 214 216 -20 42 -88 75 -165 82 -36 2
-67 8 -69 12 -2 4 1 21 8 39 10 27 9 33 -8 50 -29 27 -55 32 -97 17z"/>
<path d="M9270 1596 c-20 -13 -53 -45 -74 -70 -21 -25 -41 -44 -45 -41 -5 2
-11 18 -14 35 -14 68 -67 25 -138 -110 -23 -44 -45 -80 -50 -80 -4 0 -13 9
-19 20 -10 18 -21 20 -111 20 l-101 0 -34 -34 c-39 -39 -46 -89 -18 -132 21
-31 12 -41 -21 -26 -44 20 -81 15 -104 -14 -31 -39 -27 -86 9 -127 36 -41 38
-55 8 -59 -16 -2 -30 -19 -49 -58 -15 -31 -34 -62 -43 -69 -21 -18 -22 -81 0
-81 8 0 57 37 107 83 127 113 189 157 224 157 29 0 104 41 153 84 20 17 22 18
10 2 -31 -40 -132 -106 -162 -106 -22 0 -49 -15 -97 -54 -82 -68 -187 -174
-179 -181 3 -3 54 12 113 35 59 22 119 40 134 40 36 0 101 19 101 30 0 5 -4
12 -10 15 -5 3 -10 10 -10 15 0 4 30 -3 68 -16 38 -13 90 -24 120 -24 46 0 58
4 83 29 36 36 36 51 3 90 l-26 31 24 9 c13 5 51 19 86 32 39 13 81 38 110 64
44 40 46 45 46 96 1 49 -1 54 -21 57 -28 4 -28 5 2 95 31 93 41 202 23 237
-18 34 -55 36 -98 6z"/>
<path d="M4237 1512 c-6 -9 49 -145 98 -242 165 -326 405 -511 697 -537 74 -6
109 7 87 33 -9 11 -8 14 1 14 19 0 6 50 -39 146 -150 319 -393 529 -671 580
-83 15 -166 18 -173 6z m578 -390 c88 -64 176 -154 236 -244 33 -49 58 -88 56
-88 -2 0 -26 28 -53 63 -126 162 -228 248 -459 386 -66 40 -127 79 -135 87
-21 21 294 -161 355 -204z"/>
<path d="M3500 1204 c-14 -2 -52 -9 -85 -15 -96 -16 -205 -51 -205 -65 0 -21
161 -163 263 -231 193 -129 370 -183 600 -183 167 0 375 37 365 65 -2 6 -44 9
-99 7 -165 -5 -334 36 -553 134 -66 30 -153 69 -193 86 -40 18 -71 34 -68 36
2 2 74 -26 159 -62 312 -132 429 -163 649 -173 152 -7 157 -1 75 79 -147 141
-338 249 -528 299 -73 20 -317 34 -380 23z"/>
<path d="M9905 1181 c-34 -9 -74 -29 -190 -95 -88 -51 -99 -54 -91 -28 19 65
19 71 -8 83 -43 20 -101 -10 -191 -101 -44 -44 -83 -80 -86 -80 -4 0 -5 9 -2
21 5 18 2 19 -23 13 -52 -12 -94 -36 -139 -80 -46 -45 -59 -72 -27 -59 49 19
177 35 285 35 66 0 118 -2 115 -5 -3 -3 -70 -9 -149 -14 -79 -5 -168 -17 -197
-26 -54 -16 -76 -40 -52 -55 17 -11 159 -10 166 1 2 4 27 -15 54 -42 43 -42
59 -51 98 -49 4 1 6 10 4 20 -3 17 1 16 28 -9 55 -50 173 -111 237 -122 52 -9
67 -8 97 6 43 20 60 47 52 80 -8 32 6 40 106 64 164 39 258 108 258 191 0 63
-62 101 -194 119 -37 6 -70 12 -72 14 -2 2 5 15 16 30 25 31 25 49 3 70 -23
20 -61 27 -98 18z"/>
<path d="M7678 1120 c-24 -16 -53 -39 -63 -50 -24 -27 -33 -25 -37 7 -4 34
-32 42 -60 16 -12 -10 -41 -49 -66 -87 -39 -62 -45 -67 -55 -50 -5 10 -11 20
-12 21 0 1 -34 9 -73 18 -93 19 -134 6 -159 -52 -14 -35 -14 -40 1 -67 22 -38
15 -42 -31 -21 -33 16 -40 16 -63 4 -34 -20 -40 -88 -11 -126 26 -32 26 -39 2
-46 -11 -2 -31 -22 -45 -43 -14 -22 -36 -52 -48 -67 -17 -21 -20 -32 -12 -44
6 -9 15 -18 20 -20 5 -1 39 22 77 52 93 75 191 129 221 121 22 -5 62 11 143
60 l28 16 -25 -21 c-44 -37 -135 -80 -156 -75 -22 6 -179 -93 -223 -140 l-24
-26 29 0 c16 0 45 5 64 11 19 6 73 14 120 17 73 6 85 10 84 25 -2 23 4 22 78
-13 88 -42 142 -38 168 11 9 16 7 27 -10 53 -18 30 -18 34 -4 40 8 3 23 6 33
6 44 0 127 34 158 65 26 26 33 41 33 73 0 32 -4 41 -21 45 -16 4 -20 10 -14
24 73 170 79 293 15 293 -9 0 -37 -13 -62 -30z"/>
<path d="M5868 1014 c-16 -3 -28 -10 -28 -16 0 -18 60 -129 107 -200 56 -83
146 -177 215 -223 133 -88 344 -130 496 -99 12 2 22 9 22 14 0 17 -115 132
-169 170 -66 44 -199 111 -328 165 -51 22 -91 40 -89 42 6 7 216 -76 298 -117
105 -53 165 -97 238 -178 33 -37 60 -60 60 -51 0 20 -87 166 -142 236 -81 106
-193 185 -323 228 -67 23 -101 28 -205 30 -69 2 -137 1 -152 -1z"/>
<path d="M8245 641 c-38 -16 -105 -45 -147 -65 -42 -20 -81 -36 -86 -36 -5 0
-4 22 2 51 12 59 4 69 -60 69 -48 0 -99 -30 -199 -118 -75 -66 -90 -74 -80
-41 7 21 5 22 -46 15 -58 -8 -171 -72 -190 -108 -15 -28 -9 -29 51 -18 71 13
224 11 340 -5 l95 -13 -166 5 c-173 6 -280 -5 -316 -33 -17 -13 -17 -15 7 -35
19 -16 33 -19 65 -15 22 4 56 2 74 -4 26 -7 37 -7 43 3 5 8 20 -2 49 -36 34
-39 102 -87 124 -87 3 0 5 11 5 25 l0 26 33 -33 c51 -51 171 -128 235 -150
111 -39 202 -7 202 73 0 44 0 44 129 63 121 18 195 46 249 91 87 75 76 151
-31 203 -34 17 -91 36 -127 43 -81 15 -90 22 -62 52 29 31 28 61 -4 86 -38 30
-103 27 -189 -8z"/>
<path d="M5355 619 c-91 -12 -230 -52 -325 -93 -91 -39 -220 -113 -220 -126 0
-10 110 -86 192 -133 283 -163 616 -200 913 -101 146 48 295 126 295 154 0 4
-28 0 -62 -11 -170 -52 -359 -62 -550 -29 -135 23 -474 103 -403 94 28 -3 109
-19 180 -34 188 -42 305 -54 485 -47 145 5 324 30 343 47 18 17 -17 52 -106
105 -237 141 -511 205 -742 174z"/>
</g>
</svg>
